<?xml version="1.0" encoding="UTF-8" standalone="no"?>
<svg
   xmlns:dc="http://purl.org/dc/elements/1.1/"
   xmlns:cc="http://creativecommons.org/ns#"
   xmlns:rdf="http://www.w3.org/1999/02/22-rdf-syntax-ns#"
   xmlns:svg="http://www.w3.org/2000/svg"
   xmlns="http://www.w3.org/2000/svg"
   xmlns:sodipodi="http://sodipodi.sourceforge.net/DTD/sodipodi-0.dtd"
   xmlns:inkscape="http://www.inkscape.org/namespaces/inkscape"
   version="1.1"
   id="Layer_1"
   x="0px"
   y="0px"
   width="18.442778"
   height="25"
   viewBox="0 0 18.442778 25"
   enable-background="new 0 0 21 21"
   xml:space="preserve"
   sodipodi:docname="bank_15.svg"
   inkscape:version="1.0.1 (1.0.1+r73)"><metadata
   id="metadata13"><rdf:RDF><cc:Work
       rdf:about=""><dc:format>image/svg+xml</dc:format><dc:type
         rdf:resource="http://purl.org/dc/dcmitype/StillImage" /><dc:title /></cc:Work></rdf:RDF></metadata><defs
   id="defs11" /><sodipodi:namedview
   pagecolor="#ffffff"
   bordercolor="#666666"
   borderopacity="1"
   objecttolerance="10"
   gridtolerance="10"
   guidetolerance="10"
   inkscape:pageopacity="0"
   inkscape:pageshadow="2"
   inkscape:window-width="1858"
   inkscape:window-height="1021"
   id="namedview9"
   showgrid="false"
   inkscape:zoom="29.058721"
   inkscape:cx="8.4327341"
   inkscape:cy="13.525248"
   inkscape:window-x="62"
   inkscape:window-y="27"
   inkscape:window-maximized="1"
   inkscape:current-layer="Layer_1"
   inkscape:document-rotation="0"
   showguides="true"
   inkscape:guide-bbox="true"><inkscape:grid
     type="xygrid"
     id="grid1023"
     originx="-2.823335"
     originy="0.04866744" /></sodipodi:namedview>
<path
   d="M 18.442778,9.2213891 C 18.442778,4.1279179 14.31486,0 9.2213891,0 4.1279179,0 0,4.1279179 0,9.2213891 0,11.263996 0.6713798,13.145284 1.7958815,14.673088 L 9.2273201,25 16.841431,14.419244 h -0.0024 c 1.009442,-1.480356 1.60372,-3.269121 1.60372,-5.1978549 z"
   id="path2"
   style="fill:#7986cb;fill-opacity:1;stroke-width:1.18618" />
<circle
   fill="#FFFFFF"
   cx="9.1059322"
   cy="9.2791185"
   r="6.5026569"
   id="circle4"
   style="fill:#ff0000;fill-opacity:0;stroke-width:1.18618" />

<path
   style="fill:#ffffff;fill-opacity:1;stroke:none;stroke-width:0.0353886"
   d="M 8.6814411,15.254366 C 8.1059691,15.138002 7.4788521,14.83582 6.9283775,14.409626 6.528648,14.100141 6.2320263,13.778329 6.1302046,13.543664 6.0807159,13.429613 6.0716309,13.105028 6.0716309,11.450167 V 9.4916449 H 5.3522216 4.632812 L 3.9295832,8.9092666 3.2263544,8.3268884 4.6489928,8.3185139 6.0716312,8.3101394 6.0713958,7.0261144 C 6.0712387,6.192325 6.0560901,5.6973278 6.0280494,5.6144414 5.9623922,5.4201349 5.7008033,5.2334084 5.382101,5.1533666 5.0724583,5.0756008 4.712154,5.0689202 4.5111283,5.1372181 4.3316797,5.1981859 4.332445,5.1988527 4.0639549,4.7475304 3.7436748,4.2091408 3.7676045,3.9749735 4.1646581,3.7620517 4.4723502,3.597051 5.0414094,3.454772 5.4688367,3.4359739 c 1.015913,-0.044679 1.6735579,0.437468 2.0040794,1.4692715 0.104278,0.3255004 0.104574,0.3298441 0.126704,1.8579977 l 0.02219,1.5317347 0.437491,0.009 0.437489,0.009 0.70029,0.5813635 0.700293,0.5813638 -1.149401,0.00846 -1.1494,0.00846 0.01162,1.8104739 c 0.01139,1.784599 0.01275,1.81263 0.09742,1.961517 0.254706,0.448337 0.715676,0.662688 1.425149,0.662688 0.734682,0 1.4934629,-0.315706 2.2576729,-0.939349 0.716142,-0.584419 1.212653,-1.298752 1.310585,-1.885552 l 0.02916,-0.174745 -0.376071,-5.55e-4 c -1.346719,-0.0019 -1.927006,-0.494553 -1.929263,-1.6376258 -0.0013,-0.6624814 0.273262,-1.0714619 0.888377,-1.323264 0.441946,-0.1809155 1.245434,-0.2377434 1.724433,-0.1219628 1.044227,0.2524021 1.790689,1.0844346 2.007622,2.2377606 0.28211,1.499857 -0.847235,3.294058 -2.75198,4.372092 -0.67952,0.384589 -1.583482,0.692519 -2.3334939,0.794886 -0.4334,0.05914 -1.000631,0.06154 -1.278365,0.0055 z"
   id="path1137" /></svg>
