<?xml version="1.0" encoding="UTF-8" standalone="no"?>
<svg
   xmlns:dc="http://purl.org/dc/elements/1.1/"
   xmlns:cc="http://creativecommons.org/ns#"
   xmlns:rdf="http://www.w3.org/1999/02/22-rdf-syntax-ns#"
   xmlns:svg="http://www.w3.org/2000/svg"
   xmlns="http://www.w3.org/2000/svg"
   xmlns:sodipodi="http://sodipodi.sourceforge.net/DTD/sodipodi-0.dtd"
   xmlns:inkscape="http://www.inkscape.org/namespaces/inkscape"
   version="1.1"
   id="Layer_1"
   x="0px"
   y="0px"
   width="18.44278"
   height="25"
   viewBox="0 0 18.44278 25"
   enable-background="new 0 0 21 21"
   xml:space="preserve"
   sodipodi:docname="cafe_15.svg"
   inkscape:version="1.0.1 (1.0.1+r73)"><metadata
   id="metadata13"><rdf:RDF><cc:Work
       rdf:about=""><dc:format>image/svg+xml</dc:format><dc:type
         rdf:resource="http://purl.org/dc/dcmitype/StillImage" /><dc:title /></cc:Work></rdf:RDF></metadata><defs
   id="defs11" /><sodipodi:namedview
   pagecolor="#ffffff"
   bordercolor="#666666"
   borderopacity="1"
   objecttolerance="10"
   gridtolerance="10"
   guidetolerance="10"
   inkscape:pageopacity="0"
   inkscape:pageshadow="2"
   inkscape:window-width="1858"
   inkscape:window-height="1021"
   id="namedview9"
   showgrid="false"
   inkscape:zoom="20.547619"
   inkscape:cx="-0.7280073"
   inkscape:cy="7.3160742"
   inkscape:window-x="62"
   inkscape:window-y="27"
   inkscape:window-maximized="1"
   inkscape:current-layer="Layer_1"
   inkscape:document-rotation="0" />
<path
   d="M 18.442779,9.2213893 C 18.442779,4.127918 14.314861,0 9.221389,0 4.127918,0 0,4.127918 0,9.2213893 0,11.263997 0.6713798,13.145284 1.7958816,14.673088 L 9.22732,25 16.841431,14.419245 h -0.0024 c 1.009442,-1.480357 1.60372,-3.269122 1.60372,-5.1978557 z"
   id="path2"
   style="fill:#f29900;fill-opacity:1;stroke-width:1.18618" />
<circle
   fill="#FFFFFF"
   cx="9.2213898"
   cy="9.2213898"
   r="6.5026569"
   id="circle4"
   style="fill:#f29900;fill-opacity:1;stroke-width:1.18618" />

<g
   style="overflow:inherit;fill:#ffffff;fill-opacity:1"
   id="g1037"
   transform="matrix(0.23207934,0,0,0.28093816,3.57685,2.4156195)"><path
     d="M 37,7 H 9 v 27 c 0,2.2 1.8,4 4,4 h 20 c 2.2,0 4,-1.8 4,-4 V 29 C 43.076,29 48,24.075 48,18 48,11.925 43.076,7 37,7 Z m 0,17 V 12 c 3.314,0 6,2.686 6,6 0,3.313 -2.686,6 -6,6 z M 2,40 v 2.301 C 2,44.197 4.069,45 6.6,45 H 43.4 C 45.93,45 48,44.197 48,42.301 V 40 Z"
     id="path1026"
     style="fill:#ffffff;fill-opacity:1" /></g></svg>
