<?xml version="1.0" encoding="UTF-8" standalone="no"?>
<svg
   xmlns:dc="http://purl.org/dc/elements/1.1/"
   xmlns:cc="http://creativecommons.org/ns#"
   xmlns:rdf="http://www.w3.org/1999/02/22-rdf-syntax-ns#"
   xmlns:svg="http://www.w3.org/2000/svg"
   xmlns="http://www.w3.org/2000/svg"
   xmlns:sodipodi="http://sodipodi.sourceforge.net/DTD/sodipodi-0.dtd"
   xmlns:inkscape="http://www.inkscape.org/namespaces/inkscape"
   version="1.1"
   id="Layer_1"
   x="0px"
   y="0px"
   width="18.442778"
   height="25"
   viewBox="0 0 18.442778 25"
   enable-background="new 0 0 21 21"
   xml:space="preserve"
   sodipodi:docname="christian_15.svg"
   inkscape:version="1.0.1 (1.0.1+r73)"><metadata
   id="metadata13"><rdf:RDF><cc:Work
       rdf:about=""><dc:format>image/svg+xml</dc:format><dc:type
         rdf:resource="http://purl.org/dc/dcmitype/StillImage" /><dc:title></dc:title></cc:Work></rdf:RDF></metadata><defs
   id="defs11" /><sodipodi:namedview
   pagecolor="#ffffff"
   bordercolor="#666666"
   borderopacity="1"
   objecttolerance="10"
   gridtolerance="10"
   guidetolerance="10"
   inkscape:pageopacity="0"
   inkscape:pageshadow="2"
   inkscape:window-width="1858"
   inkscape:window-height="1021"
   id="namedview9"
   showgrid="false"
   inkscape:zoom="29.058721"
   inkscape:cx="10.280701"
   inkscape:cy="10.967614"
   inkscape:window-x="62"
   inkscape:window-y="27"
   inkscape:window-maximized="1"
   inkscape:current-layer="Layer_1"
   inkscape:document-rotation="0"
   showguides="true"
   inkscape:guide-bbox="true"><inkscape:grid
     type="xygrid"
     id="grid1023"
     originx="-2.823335"
     originy="0.04866744" /></sodipodi:namedview>
<path
   d="M 18.442778,9.2213891 C 18.442778,4.1279179 14.31486,0 9.2213891,0 4.1279179,0 0,4.1279179 0,9.2213891 0,11.263996 0.6713798,13.145284 1.7958815,14.673088 L 9.2273201,25 16.841431,14.419244 h -0.0024 c 1.009442,-1.480356 1.60372,-3.269121 1.60372,-5.1978549 z"
   id="path2"
   style="fill:#78909c;fill-opacity:1;stroke-width:1.18618" />
<circle
   fill="#FFFFFF"
   cx="9.1059322"
   cy="9.2791185"
   r="6.5026569"
   id="circle4"
   style="fill:#ff0000;fill-opacity:0;stroke-width:1.18618" />

<g
   style="overflow:inherit;fill:#ffffff;fill-opacity:1"
   id="g966"
   transform="matrix(0.24712152,0,0,0.24712152,2.9980208,3.1199506)"><path
     d="M 49,22.396 26,11.516 V 7 h 3 V 5 H 26 V 1 h -2 v 4 h -3 v 2 h 3 v 4.516 L 7.942,19.121 1,22.396 V 24 H 8 V 49 H 20 V 34 H 30 V 49 H 42 V 24 h 7 z"
     id="path955"
     style="fill:#ffffff;fill-opacity:1" /></g></svg>
