<?xml version="1.0" encoding="UTF-8" standalone="no"?>
<svg
   xmlns:dc="http://purl.org/dc/elements/1.1/"
   xmlns:cc="http://creativecommons.org/ns#"
   xmlns:rdf="http://www.w3.org/1999/02/22-rdf-syntax-ns#"
   xmlns:svg="http://www.w3.org/2000/svg"
   xmlns="http://www.w3.org/2000/svg"
   xmlns:sodipodi="http://sodipodi.sourceforge.net/DTD/sodipodi-0.dtd"
   xmlns:inkscape="http://www.inkscape.org/namespaces/inkscape"
   version="1.1"
   id="Layer_1"
   x="0px"
   y="0px"
   width="18.44278"
   height="25"
   viewBox="0 0 18.44278 25"
   enable-background="new 0 0 21 21"
   xml:space="preserve"
   sodipodi:docname="clinic_15.svg"
   inkscape:version="1.0.1 (1.0.1+r73)"><metadata
   id="metadata13"><rdf:RDF><cc:Work
       rdf:about=""><dc:format>image/svg+xml</dc:format><dc:type
         rdf:resource="http://purl.org/dc/dcmitype/StillImage" /><dc:title /></cc:Work></rdf:RDF></metadata><defs
   id="defs11" /><sodipodi:namedview
   pagecolor="#ffffff"
   bordercolor="#666666"
   borderopacity="1"
   objecttolerance="10"
   gridtolerance="10"
   guidetolerance="10"
   inkscape:pageopacity="0"
   inkscape:pageshadow="2"
   inkscape:window-width="1366"
   inkscape:window-height="659"
   id="namedview9"
   showgrid="false"
   inkscape:zoom="14.529361"
   inkscape:cx="-1.3624354"
   inkscape:cy="11.030248"
   inkscape:window-x="0"
   inkscape:window-y="27"
   inkscape:window-maximized="1"
   inkscape:current-layer="Layer_1"
   inkscape:document-rotation="0" />
<path
   d="M 18.442779,9.2213893 C 18.442779,4.127918 14.314861,0 9.221389,0 4.127918,0 0,4.127918 0,9.2213893 0,11.263997 0.6713798,13.145284 1.7958816,14.673088 L 9.22732,25 16.841431,14.419245 h -0.0024 c 1.009442,-1.480357 1.60372,-3.269122 1.60372,-5.1978557 z"
   id="path2"
   style="fill:#ee675c;fill-opacity:1;stroke-width:1.18618" />
<circle
   fill="#FFFFFF"
   cx="9.2213898"
   cy="9.2213898"
   r="6.5026569"
   id="circle4"
   style="fill:#ff0000;fill-opacity:0;stroke-width:1.18618" />

<g
   id="g890"
   transform="matrix(0.02420288,0,0,0.02579782,3.3537341,3.2479498)"
   style="fill:#ffffff;fill-opacity:1"><g
     id="g834"
     style="fill:#ffffff;fill-opacity:1">
	<path
   d="m 463.9,275.85 v -52.1 c 0,-38.6 -31.3,-69.9 -69.9,-69.9 -38.6,0 -69.9,31.3 -69.9,69.9 v 131.3 c 0,43.8 -35.4,79.2 -79.2,79.2 -43.8,0 -79.2,-35.4 -79.2,-79.2 v -46.2 c 69.6,-9.3 124.3,-64.5 126.1,-131 v -123 c 0,-11.5 -9.4,-20.9 -20.9,-20.9 -0.4,0 -48.1,0 -48.1,0 -1.1,-10.5 -10,-18.8 -20.7,-18.8 -11.5,0 -20.9,9.4 -20.9,20.9 v 37.5 c 0,11.5 9.4,20.9 20.9,20.9 10.8,0 18.8,-8.3 20.6,-18.8 h 27.4 v 102.2 c 0,50 -46.9,90.7 -104.3,90.7 -57.3,0 -104.3,-40.7 -104.3,-90.7 V 75.65 h 26.2 c 1.1,10.5 10,18.8 20.7,18.8 11.5,0 19.8,-9.4 20.9,-20.9 v -37.5 c 0,-11.5 -9.4,-20.9 -20.9,-20.9 -10.8,0 -19.7,8.3 -20.7,18.8 h -47 C 9.4,33.95 0,43.35 0,54.75 v 123 c 0,66.5 53.7,121.8 124.1,131 v 46.3 c 0,65.7 54.2,119.9 119.9,119.9 66.7,0 119.9,-53.2 122,-119.9 v -131.4 c 0,-15.6 12.5,-28.1 28.1,-28.1 15.6,0 28.1,12.5 28.1,28.1 v 51.4 c -16.5,7.7 -28.1,24.5 -28.1,43.5 0,26.1 20.9,48 48,48 26.1,0 48,-20.9 48,-48 -0.1,-18.4 -10.5,-34.7 -26.2,-42.7 z m -21.9,50 c -4.2,0 -7.3,-3.1 -7.3,-7.3 0,-4.2 3.1,-7.3 7.3,-7.3 4.2,0 7.3,4.2 7.3,7.3 0,4.2 -3.1,7.3 -7.3,7.3 z"
   id="path832"
   style="fill:#ffffff;fill-opacity:1" />
</g><g
     id="g836"
     style="fill:#ffffff;fill-opacity:1">
</g><g
     id="g838"
     style="fill:#ffffff;fill-opacity:1">
</g><g
     id="g840"
     style="fill:#ffffff;fill-opacity:1">
</g><g
     id="g842"
     style="fill:#ffffff;fill-opacity:1">
</g><g
     id="g844"
     style="fill:#ffffff;fill-opacity:1">
</g><g
     id="g846"
     style="fill:#ffffff;fill-opacity:1">
</g><g
     id="g848"
     style="fill:#ffffff;fill-opacity:1">
</g><g
     id="g850"
     style="fill:#ffffff;fill-opacity:1">
</g><g
     id="g852"
     style="fill:#ffffff;fill-opacity:1">
</g><g
     id="g854"
     style="fill:#ffffff;fill-opacity:1">
</g><g
     id="g856"
     style="fill:#ffffff;fill-opacity:1">
</g><g
     id="g858"
     style="fill:#ffffff;fill-opacity:1">
</g><g
     id="g860"
     style="fill:#ffffff;fill-opacity:1">
</g><g
     id="g862"
     style="fill:#ffffff;fill-opacity:1">
</g><g
     id="g864"
     style="fill:#ffffff;fill-opacity:1">
</g></g></svg>
