<?xml version="1.0" encoding="UTF-8" standalone="no"?>
<svg
   xmlns:dc="http://purl.org/dc/elements/1.1/"
   xmlns:cc="http://creativecommons.org/ns#"
   xmlns:rdf="http://www.w3.org/1999/02/22-rdf-syntax-ns#"
   xmlns:svg="http://www.w3.org/2000/svg"
   xmlns="http://www.w3.org/2000/svg"
   xmlns:sodipodi="http://sodipodi.sourceforge.net/DTD/sodipodi-0.dtd"
   xmlns:inkscape="http://www.inkscape.org/namespaces/inkscape"
   version="1.1"
   id="Layer_1"
   x="0px"
   y="0px"
   width="21px"
   height="21px"
   viewBox="0 0 21 21"
   enable-background="new 0 0 21 21"
   xml:space="preserve"
   sodipodi:docname="dentist (21x21 px)-r-w.svg"
   inkscape:version="1.0.1 (1.0.1+r73)"><metadata
   id="metadata13"><rdf:RDF><cc:Work
       rdf:about=""><dc:format>image/svg+xml</dc:format><dc:type
         rdf:resource="http://purl.org/dc/dcmitype/StillImage" /><dc:title></dc:title></cc:Work></rdf:RDF></metadata><defs
   id="defs11" /><sodipodi:namedview
   pagecolor="#ffffff"
   bordercolor="#666666"
   borderopacity="1"
   objecttolerance="10"
   gridtolerance="10"
   guidetolerance="10"
   inkscape:pageopacity="0"
   inkscape:pageshadow="2"
   inkscape:window-width="1858"
   inkscape:window-height="1021"
   id="namedview9"
   showgrid="false"
   inkscape:zoom="20.547619"
   inkscape:cx="9.1177657"
   inkscape:cy="9.5109835"
   inkscape:window-x="62"
   inkscape:window-y="27"
   inkscape:window-maximized="1"
   inkscape:current-layer="Layer_1"
   inkscape:document-rotation="0" />
<path
   d="M18.274,7.774C18.274,3.48,14.794,0,10.5,0S2.726,3.48,2.726,7.774c0,1.722,0.566,3.308,1.514,4.596l6.265,8.706l6.419-8.92  h-0.002C17.773,10.908,18.274,9.4,18.274,7.774z"
   id="path2"
   style="fill:#ee675c;fill-opacity:1" />
<circle
   fill="#FFFFFF"
   cx="10.5"
   cy="7.774"
   r="5.482"
   id="circle4"
   style="fill:#ff0000;fill-opacity:0" />

<g
   style="overflow:inherit;fill:#ffffff;fill-opacity:1"
   id="g843"
   transform="matrix(0.28014471,0,0,0.21107942,3.5706424,2.6202871)"><path
     d="m 24.847,27.268 c 3.547,0 5.191,2.69 5.536,6.512 0.081,0.914 -10e-4,2.247 -0.12,3.791 C 29.865,42.699 29.407,49 32.82,49 c 2.89,0 4.371,-5.54 5.229,-11.856 0.826,-6.252 -0.051,-9.363 0.382,-12.14 0.821,-5.26 5.412,-9.976 3.994,-16.683 C 41.639,4.6 39.589,2.851 37.561,2.114 32.887,0.413 29.867,3.691 24.847,3.691 19.828,3.691 16.81,0.413 12.134,2.114 10.107,2.85 8.056,4.6 7.268,8.321 c -1.415,6.707 3.175,11.422 3.999,16.683 0.429,2.776 -0.443,5.888 0.382,12.14 0.856,6.316 2.34,11.856 5.227,11.856 3.411,0 2.956,-6.301 2.558,-11.429 -0.116,-1.545 -0.204,-2.878 -0.121,-3.792 0.344,-3.821 2.012,-6.511 5.534,-6.511 z"
     id="path832"
     style="fill:#ffffff;fill-opacity:1" /></g></svg>
