<?xml version="1.0" encoding="UTF-8" standalone="no"?>
<svg
   xmlns:dc="http://purl.org/dc/elements/1.1/"
   xmlns:cc="http://creativecommons.org/ns#"
   xmlns:rdf="http://www.w3.org/1999/02/22-rdf-syntax-ns#"
   xmlns:svg="http://www.w3.org/2000/svg"
   xmlns="http://www.w3.org/2000/svg"
   xmlns:sodipodi="http://sodipodi.sourceforge.net/DTD/sodipodi-0.dtd"
   xmlns:inkscape="http://www.inkscape.org/namespaces/inkscape"
   version="1.1"
   id="Layer_1"
   x="0px"
   y="0px"
   width="18.44278"
   height="25"
   viewBox="0 0 18.44278 25"
   enable-background="new 0 0 21 21"
   xml:space="preserve"
   sodipodi:docname="dentist_15.svg"
   inkscape:version="1.0.1 (1.0.1+r73)"><metadata
   id="metadata13"><rdf:RDF><cc:Work
       rdf:about=""><dc:format>image/svg+xml</dc:format><dc:type
         rdf:resource="http://purl.org/dc/dcmitype/StillImage" /><dc:title /></cc:Work></rdf:RDF></metadata><defs
   id="defs11" /><sodipodi:namedview
   pagecolor="#ffffff"
   bordercolor="#666666"
   borderopacity="1"
   objecttolerance="10"
   gridtolerance="10"
   guidetolerance="10"
   inkscape:pageopacity="0"
   inkscape:pageshadow="2"
   inkscape:window-width="1858"
   inkscape:window-height="1021"
   id="namedview9"
   showgrid="false"
   inkscape:zoom="20.547619"
   inkscape:cx="6.3917657"
   inkscape:cy="9.5109835"
   inkscape:window-x="62"
   inkscape:window-y="27"
   inkscape:window-maximized="1"
   inkscape:current-layer="Layer_1"
   inkscape:document-rotation="0" />
<path
   d="M 18.442779,9.2213893 C 18.442779,4.127918 14.314861,0 9.221389,0 4.127918,0 0,4.127918 0,9.2213893 0,11.263997 0.6713798,13.145284 1.7958816,14.673088 L 9.22732,25 16.841431,14.419245 h -0.0024 c 1.009442,-1.480357 1.60372,-3.269122 1.60372,-5.1978557 z"
   id="path2"
   style="fill:#ee675c;fill-opacity:1;stroke-width:1.18618" />
<circle
   fill="#FFFFFF"
   cx="9.2213898"
   cy="9.2213898"
   r="6.5026569"
   id="circle4"
   style="fill:#ff0000;fill-opacity:0;stroke-width:1.18618" />

<g
   style="overflow:inherit;fill:#ffffff;fill-opacity:1"
   id="g843"
   transform="matrix(0.33230299,0,0,0.25037889,1.0019007,3.1081409)"><path
     d="m 24.847,27.268 c 3.547,0 5.191,2.69 5.536,6.512 0.081,0.914 -10e-4,2.247 -0.12,3.791 C 29.865,42.699 29.407,49 32.82,49 c 2.89,0 4.371,-5.54 5.229,-11.856 0.826,-6.252 -0.051,-9.363 0.382,-12.14 0.821,-5.26 5.412,-9.976 3.994,-16.683 C 41.639,4.6 39.589,2.851 37.561,2.114 32.887,0.413 29.867,3.691 24.847,3.691 19.828,3.691 16.81,0.413 12.134,2.114 10.107,2.85 8.056,4.6 7.268,8.321 c -1.415,6.707 3.175,11.422 3.999,16.683 0.429,2.776 -0.443,5.888 0.382,12.14 0.856,6.316 2.34,11.856 5.227,11.856 3.411,0 2.956,-6.301 2.558,-11.429 -0.116,-1.545 -0.204,-2.878 -0.121,-3.792 0.344,-3.821 2.012,-6.511 5.534,-6.511 z"
     id="path832"
     style="fill:#ffffff;fill-opacity:1" /></g></svg>
