<?xml version="1.0" encoding="UTF-8" standalone="no"?>
<svg
   xmlns:dc="http://purl.org/dc/elements/1.1/"
   xmlns:cc="http://creativecommons.org/ns#"
   xmlns:rdf="http://www.w3.org/1999/02/22-rdf-syntax-ns#"
   xmlns:svg="http://www.w3.org/2000/svg"
   xmlns="http://www.w3.org/2000/svg"
   xmlns:sodipodi="http://sodipodi.sourceforge.net/DTD/sodipodi-0.dtd"
   xmlns:inkscape="http://www.inkscape.org/namespaces/inkscape"
   version="1.1"
   id="Layer_1"
   x="0px"
   y="0px"
   width="21px"
   height="21px"
   viewBox="0 0 21 21"
   enable-background="new 0 0 21 21"
   xml:space="preserve"
   sodipodi:docname="restaurant (21x21 px).svg"
   inkscape:version="1.0.1 (1.0.1+r73)"><metadata
   id="metadata13"><rdf:RDF><cc:Work
       rdf:about=""><dc:format>image/svg+xml</dc:format><dc:type
         rdf:resource="http://purl.org/dc/dcmitype/StillImage" /><dc:title></dc:title></cc:Work></rdf:RDF></metadata><defs
   id="defs11" /><sodipodi:namedview
   pagecolor="#ffffff"
   bordercolor="#666666"
   borderopacity="1"
   objecttolerance="10"
   gridtolerance="10"
   guidetolerance="10"
   inkscape:pageopacity="0"
   inkscape:pageshadow="2"
   inkscape:window-width="1858"
   inkscape:window-height="1021"
   id="namedview9"
   showgrid="false"
   inkscape:zoom="20.547619"
   inkscape:cx="9.2118697"
   inkscape:cy="10.259013"
   inkscape:window-x="62"
   inkscape:window-y="27"
   inkscape:window-maximized="1"
   inkscape:current-layer="Layer_1" />
<path
   d="M18.274,7.774C18.274,3.48,14.794,0,10.5,0S2.726,3.48,2.726,7.774c0,1.722,0.566,3.308,1.514,4.596l6.265,8.706l6.419-8.92  h-0.002C17.773,10.908,18.274,9.4,18.274,7.774z"
   id="path2"
   style="fill:#f29900;fill-opacity:1" />
<circle
   fill="#FFFFFF"
   cx="10.5"
   cy="7.774"
   r="5.482"
   id="circle4"
   style="fill:#f29900;fill-opacity:1" />

<g
   style="overflow:inherit;fill:#ffffff;fill-opacity:1"
   id="g1006"
   transform="matrix(0.26666667,0,0,0.20833225,3.974496,2.9714452)"><path
     d="M 22,1.932 V 13 H 20 V 2 C 20,1.448 19.552,1 19,1 18.448,1 18,1.448 18,2 V 13 H 16 V 1.964 C 16,0.677 14,0.721 14,1.931 V 13 H 12 V 2.01 C 12,0.647 10,0.697 10,1.956 v 14.472 c 0,2.087 2,3.463 4,3.463 V 46 c 0,4 6,4 6,0 V 19.892 c 2,0 4,-1.662 4,-3.227 V 1.964 C 24,0.689 22,0.738 22,1.932 Z M 31,5 v 25 h 2 v 16 c 0,4 7,4 7,0 V 5 C 40,0 31,0 31,5 Z"
     id="path995"
     style="fill:#ffffff;fill-opacity:1" /></g></svg>
