<?xml version="1.0" encoding="UTF-8" standalone="no"?>
<svg
   xmlns:dc="http://purl.org/dc/elements/1.1/"
   xmlns:cc="http://creativecommons.org/ns#"
   xmlns:rdf="http://www.w3.org/1999/02/22-rdf-syntax-ns#"
   xmlns:svg="http://www.w3.org/2000/svg"
   xmlns="http://www.w3.org/2000/svg"
   xmlns:sodipodi="http://sodipodi.sourceforge.net/DTD/sodipodi-0.dtd"
   xmlns:inkscape="http://www.inkscape.org/namespaces/inkscape"
   version="1.1"
   id="Layer_1"
   x="0px"
   y="0px"
   width="18.44278"
   height="25"
   viewBox="0 0 18.44278 25"
   enable-background="new 0 0 21 21"
   xml:space="preserve"
   sodipodi:docname="fast_food_15.svg"
   inkscape:version="1.0.1 (1.0.1+r73)"><metadata
   id="metadata13"><rdf:RDF><cc:Work
       rdf:about=""><dc:format>image/svg+xml</dc:format><dc:type
         rdf:resource="http://purl.org/dc/dcmitype/StillImage" /><dc:title /></cc:Work></rdf:RDF></metadata><defs
   id="defs11" /><sodipodi:namedview
   pagecolor="#ffffff"
   bordercolor="#666666"
   borderopacity="1"
   objecttolerance="10"
   gridtolerance="10"
   guidetolerance="10"
   inkscape:pageopacity="0"
   inkscape:pageshadow="2"
   inkscape:window-width="1858"
   inkscape:window-height="1021"
   id="namedview9"
   showgrid="false"
   inkscape:zoom="20.547619"
   inkscape:cx="6.4858697"
   inkscape:cy="10.259013"
   inkscape:window-x="62"
   inkscape:window-y="27"
   inkscape:window-maximized="1"
   inkscape:current-layer="Layer_1"
   inkscape:document-rotation="0" />
<path
   d="M 18.442779,9.2213893 C 18.442779,4.127918 14.314861,0 9.221389,0 4.127918,0 0,4.127918 0,9.2213893 0,11.263997 0.6713798,13.145284 1.7958816,14.673088 L 9.22732,25 16.841431,14.419245 h -0.0024 c 1.009442,-1.480357 1.60372,-3.269122 1.60372,-5.1978557 z"
   id="path2"
   style="fill:#f29900;fill-opacity:1;stroke-width:1.18618" />
<circle
   fill="#FFFFFF"
   cx="9.2213898"
   cy="9.2213898"
   r="6.5026569"
   id="circle4"
   style="fill:#f29900;fill-opacity:1;stroke-width:1.18618" />

<g
   style="overflow:inherit;fill:#ffffff;fill-opacity:1"
   id="g1006"
   transform="matrix(0.31631556,0,0,0.24712024,1.4809452,3.5246788)"><path
     d="M 22,1.932 V 13 H 20 V 2 C 20,1.448 19.552,1 19,1 18.448,1 18,1.448 18,2 V 13 H 16 V 1.964 C 16,0.677 14,0.721 14,1.931 V 13 H 12 V 2.01 C 12,0.647 10,0.697 10,1.956 v 14.472 c 0,2.087 2,3.463 4,3.463 V 46 c 0,4 6,4 6,0 V 19.892 c 2,0 4,-1.662 4,-3.227 V 1.964 C 24,0.689 22,0.738 22,1.932 Z M 31,5 v 25 h 2 v 16 c 0,4 7,4 7,0 V 5 C 40,0 31,0 31,5 Z"
     id="path995"
     style="fill:#ffffff;fill-opacity:1" /></g></svg>
