<?xml version="1.0" encoding="UTF-8" standalone="no"?>
<svg
   xmlns:dc="http://purl.org/dc/elements/1.1/"
   xmlns:cc="http://creativecommons.org/ns#"
   xmlns:rdf="http://www.w3.org/1999/02/22-rdf-syntax-ns#"
   xmlns:svg="http://www.w3.org/2000/svg"
   xmlns="http://www.w3.org/2000/svg"
   xmlns:sodipodi="http://sodipodi.sourceforge.net/DTD/sodipodi-0.dtd"
   xmlns:inkscape="http://www.inkscape.org/namespaces/inkscape"
   version="1.1"
   id="Layer_1"
   x="0px"
   y="0px"
   width="18.44278"
   height="25"
   viewBox="0 0 18.44278 25"
   enable-background="new 0 0 21 21"
   xml:space="preserve"
   sodipodi:docname="fire_station_15.svg"
   inkscape:version="1.0.1 (1.0.1+r73)"><metadata
   id="metadata13"><rdf:RDF><cc:Work
       rdf:about=""><dc:format>image/svg+xml</dc:format><dc:type
         rdf:resource="http://purl.org/dc/dcmitype/StillImage" /><dc:title /></cc:Work></rdf:RDF></metadata><defs
   id="defs11" /><sodipodi:namedview
   pagecolor="#ffffff"
   bordercolor="#666666"
   borderopacity="1"
   objecttolerance="10"
   gridtolerance="10"
   guidetolerance="10"
   inkscape:pageopacity="0"
   inkscape:pageshadow="2"
   inkscape:window-width="1858"
   inkscape:window-height="1021"
   id="namedview9"
   showgrid="false"
   inkscape:zoom="29.058721"
   inkscape:cx="9.838855"
   inkscape:cy="11.731452"
   inkscape:window-x="62"
   inkscape:window-y="27"
   inkscape:window-maximized="1"
   inkscape:current-layer="Layer_1"
   inkscape:document-rotation="0" />
<path
   d="M 18.442779,9.2213893 C 18.442779,4.127918 14.314861,0 9.221389,0 4.127918,0 0,4.127918 0,9.2213893 0,11.263997 0.6713798,13.145284 1.7958816,14.673088 L 9.22732,25 16.841431,14.419245 h -0.0024 c 1.009442,-1.480357 1.60372,-3.269122 1.60372,-5.1978557 z"
   id="path2"
   style="fill:#78909c;fill-opacity:1;stroke-width:1.18618" />
<circle
   fill="#FFFFFF"
   cx="9.2213898"
   cy="9.2213898"
   r="6.5026569"
   id="circle4"
   style="fill:#ff0000;fill-opacity:0;stroke-width:1.18618" />

<g
   id="g967"
   transform="matrix(0.06178038,0,0,0.06882646,3.3030009,2.4809078)"
   style="fill:#ffffff;fill-opacity:1"><path
     d="m 165.563,69.663 c -2.031,-2.032 -5.043,-2.723 -7.758,-1.784 -2.714,0.94 -4.653,3.348 -4.992,6.201 -0.005,0.042 -0.665,4.356 -3.325,6.998 -0.527,0.523 -1.115,0.992 -1.733,1.41 C 145.974,71.858 141.778,54.531 132.199,40.163 116.998,17.361 87.274,10.317 86.016,10.029 c -3.433,-0.789 -7.097,0.8 -8.603,3.983 -1.494,3.157 -0.754,6.806 1.976,8.968 0.519,0.531 3.678,4.061 3.401,10.982 -0.219,5.479 -2.434,7.757 -10.08,14.81 -2.312,2.133 -4.933,4.55 -7.853,7.47 C 60.1,60.998 56.39,66.07 53.57,70.675 53.43,70.447 53.288,70.221 53.143,69.997 47.865,61.787 32.936,56.483 29.997,55.503 c -3.343,-1.115 -7.356,-0.115 -9.16,2.916 -1.758,2.956 -1.602,6.369 0.797,8.769 0.493,1.026 2.303,5.577 1.705,16.042 -0.297,5.195 -4.604,11.472 -9.163,18.118 C 7.531,111.03 0,122.006 0,135.796 c 0,24.329 23.715,43.876 24.724,44.697 1.337,1.086 3.007,1.679 4.729,1.679 H 64.67 c 2.75,0 5.28,-1.505 6.592,-3.923 1.312,-2.417 1.195,-5.358 -0.303,-7.665 -3.029,-4.661 -11.106,-18.975 -12.086,-29.108 -0.26,-2.68 -0.187,-5.492 0.085,-8.249 5.352,6.953 11.53,10.203 12.421,10.648 2.356,1.179 5.158,1.033 7.38,-0.38 2.223,-1.415 3.541,-3.892 3.471,-6.525 -0.118,-4.468 0.242,-18.056 3.276,-27.16 1.128,-3.385 3.58,-6.872 6.331,-9.983 0.452,2.115 1.029,4.433 1.762,6.959 2.687,9.253 11.509,15 20.042,20.557 8.105,5.279 16.487,10.738 18.873,18.446 4.178,13.497 -8.389,22.301 -8.887,22.643 -2.75,1.833 -3.976,5.25 -3.018,8.414 0.958,3.163 3.873,5.327 7.178,5.327 h 37.504 c 1.603,0 3.164,-0.514 4.454,-1.466 C 170.654,180.037 192,163.889 192,129.852 192,96.484 166.643,70.743 165.563,69.663 Z"
     id="path912"
     style="fill:#ffffff;fill-opacity:1" /><g
     id="g914"
     style="fill:#ffffff;fill-opacity:1">
</g><g
     id="g916"
     style="fill:#ffffff;fill-opacity:1">
</g><g
     id="g918"
     style="fill:#ffffff;fill-opacity:1">
</g><g
     id="g920"
     style="fill:#ffffff;fill-opacity:1">
</g><g
     id="g922"
     style="fill:#ffffff;fill-opacity:1">
</g><g
     id="g924"
     style="fill:#ffffff;fill-opacity:1">
</g><g
     id="g926"
     style="fill:#ffffff;fill-opacity:1">
</g><g
     id="g928"
     style="fill:#ffffff;fill-opacity:1">
</g><g
     id="g930"
     style="fill:#ffffff;fill-opacity:1">
</g><g
     id="g932"
     style="fill:#ffffff;fill-opacity:1">
</g><g
     id="g934"
     style="fill:#ffffff;fill-opacity:1">
</g><g
     id="g936"
     style="fill:#ffffff;fill-opacity:1">
</g><g
     id="g938"
     style="fill:#ffffff;fill-opacity:1">
</g><g
     id="g940"
     style="fill:#ffffff;fill-opacity:1">
</g><g
     id="g942"
     style="fill:#ffffff;fill-opacity:1">
</g></g></svg>
