<?xml version="1.0" encoding="UTF-8" standalone="no"?>
<svg
   xmlns:dc="http://purl.org/dc/elements/1.1/"
   xmlns:cc="http://creativecommons.org/ns#"
   xmlns:rdf="http://www.w3.org/1999/02/22-rdf-syntax-ns#"
   xmlns:svg="http://www.w3.org/2000/svg"
   xmlns="http://www.w3.org/2000/svg"
   xmlns:sodipodi="http://sodipodi.sourceforge.net/DTD/sodipodi-0.dtd"
   xmlns:inkscape="http://www.inkscape.org/namespaces/inkscape"
   version="1.1"
   id="Layer_1"
   x="0px"
   y="0px"
   width="21px"
   height="21px"
   viewBox="0 0 21 21"
   enable-background="new 0 0 21 21"
   xml:space="preserve"
   sodipodi:docname="fuel (21x21 px)-r-w.svg"
   inkscape:version="1.0.1 (1.0.1+r73)"><metadata
   id="metadata13"><rdf:RDF><cc:Work
       rdf:about=""><dc:format>image/svg+xml</dc:format><dc:type
         rdf:resource="http://purl.org/dc/dcmitype/StillImage" /><dc:title></dc:title></cc:Work></rdf:RDF></metadata><defs
   id="defs11" /><sodipodi:namedview
   pagecolor="#ffffff"
   bordercolor="#666666"
   borderopacity="1"
   objecttolerance="10"
   gridtolerance="10"
   guidetolerance="10"
   inkscape:pageopacity="0"
   inkscape:pageshadow="2"
   inkscape:window-width="1858"
   inkscape:window-height="1021"
   id="namedview9"
   showgrid="false"
   inkscape:zoom="20.547619"
   inkscape:cx="9.1177657"
   inkscape:cy="9.5109835"
   inkscape:window-x="62"
   inkscape:window-y="27"
   inkscape:window-maximized="1"
   inkscape:current-layer="Layer_1"
   inkscape:document-rotation="0" />
<path
   d="M18.274,7.774C18.274,3.48,14.794,0,10.5,0S2.726,3.48,2.726,7.774c0,1.722,0.566,3.308,1.514,4.596l6.265,8.706l6.419-8.92  h-0.002C17.773,10.908,18.274,9.4,18.274,7.774z"
   id="path2"
   style="fill:#7986cb;fill-opacity:1" />
<circle
   fill="#FFFFFF"
   cx="10.5"
   cy="7.774"
   r="5.482"
   id="circle4"
   style="fill:#ff0000;fill-opacity:0" />

<g
   style="overflow:inherit;fill:#ffffff;fill-opacity:1"
   id="g843"
   transform="matrix(0.21766575,0,0,0.21126909,5.1301779,2.5187554)"><path
     d="M 45.102,10.08 C 45.651,9.531 46.424,8.934 47.213,8.214 L 47.942,7.603 45.955,5.373 45.306,5.98 c -2.746,2.495 -4.398,4.003 -5.205,7.094 -0.801,3.073 -0.833,6.184 -0.749,9.092 0.088,2.998 0.201,4.976 1.039,7.182 l 0.316,0.813 c 0.804,2.023 2.021,5.079 2.021,9.01 0,4.749 -1.924,7.158 -5.718,7.158 -3.452,0 -5.314,-2.304 -5.532,-6.856 -0.099,-2.017 0.467,-4.507 1.062,-7.138 0.503,-2.221 1.021,-4.519 1.276,-6.958 0.282,-2.689 -0.071,-4.611 -1.104,-5.765 C 31.386,18.131 29.345,18 27.547,18 H 27 V 4.139 C 27,2.939 26.129,2 24.936,2 H 4.295 C 3.104,2 2,2.939 2,4.139 V 48 H 27 V 21 h 0.548 c 1.23,0 2.504,0.138 2.937,0.621 0.232,0.26 0.588,1.102 0.353,3.373 -0.237,2.264 -0.739,4.503 -1.223,6.636 -0.641,2.839 -1.249,5.539 -1.129,7.973 0.295,6.179 3.404,9.73 8.524,9.73 5.457,0 8.715,-3.798 8.715,-10.168 0,-4.509 -1.395,-8.022 -2.232,-10.127 l -0.302,-0.767 c -0.602,-1.589 -0.737,-3.062 -0.82,-5.632 0.963,-0.022 2.129,-0.045 2.653,-0.045 1.199,0 1.802,-0.703 2.059,-1.921 0.15,-0.71 -0.082,-1.641 -0.082,-3.331 V 16.894 C 47,12.427 46.317,11.151 45.102,10.08 Z M 24,19 H 5 V 6 h 19 z m 20,-1.654 c 0,0.873 0.23,1.708 0.201,2.239 -0.598,0.009 -1.286,0.025 -1.986,0.041 0.026,-1.929 0.24,-3.893 0.733,-5.784 0.134,-0.504 0.094,-0.948 0.296,-1.362 0.533,0.513 0.756,1.282 0.756,4.416 z"
     id="path832"
     style="fill:#ffffff;fill-opacity:1" /></g></svg>
