<?xml version="1.0" encoding="UTF-8" standalone="no"?>
<svg
   xmlns:dc="http://purl.org/dc/elements/1.1/"
   xmlns:cc="http://creativecommons.org/ns#"
   xmlns:rdf="http://www.w3.org/1999/02/22-rdf-syntax-ns#"
   xmlns:svg="http://www.w3.org/2000/svg"
   xmlns="http://www.w3.org/2000/svg"
   xmlns:sodipodi="http://sodipodi.sourceforge.net/DTD/sodipodi-0.dtd"
   xmlns:inkscape="http://www.inkscape.org/namespaces/inkscape"
   version="1.1"
   id="Layer_1"
   x="0px"
   y="0px"
   width="21px"
   height="21px"
   viewBox="0 0 21 21"
   enable-background="new 0 0 21 21"
   xml:space="preserve"
   sodipodi:docname="garden (21x21 px)-r-w.svg"
   inkscape:version="1.0.1 (1.0.1+r73)"><metadata
   id="metadata13"><rdf:RDF><cc:Work
       rdf:about=""><dc:format>image/svg+xml</dc:format><dc:type
         rdf:resource="http://purl.org/dc/dcmitype/StillImage" /><dc:title></dc:title></cc:Work></rdf:RDF></metadata><defs
   id="defs11" /><sodipodi:namedview
   pagecolor="#ffffff"
   bordercolor="#666666"
   borderopacity="1"
   objecttolerance="10"
   gridtolerance="10"
   guidetolerance="10"
   inkscape:pageopacity="0"
   inkscape:pageshadow="2"
   inkscape:window-width="1366"
   inkscape:window-height="659"
   id="namedview9"
   showgrid="false"
   inkscape:zoom="14.529361"
   inkscape:cx="5.9349283"
   inkscape:cy="11.117216"
   inkscape:window-x="0"
   inkscape:window-y="27"
   inkscape:window-maximized="1"
   inkscape:current-layer="Layer_1"
   inkscape:document-rotation="0" />
<path
   d="M18.274,7.774C18.274,3.48,14.794,0,10.5,0S2.726,3.48,2.726,7.774c0,1.722,0.566,3.308,1.514,4.596l6.265,8.706l6.419-8.92  h-0.002C17.773,10.908,18.274,9.4,18.274,7.774z"
   id="path2"
   style="fill:#36a853;fill-opacity:1" />
<circle
   fill="#FFFFFF"
   cx="10.5"
   cy="7.774"
   r="5.482"
   id="circle4"
   style="fill:#ff0000;fill-opacity:0" />

<g
   id="g911"
   transform="matrix(0.02663357,0,0,0.02148438,3.7291512,2.2910581)"
   style="fill:#ffffff;fill-opacity:1"><g
     id="g854"
     style="fill:#ffffff;fill-opacity:1">
	<g
   id="g852"
   style="fill:#ffffff;fill-opacity:1">
		<path
   d="m 435.2,238.933 h -91.885 c 10.217,-31.73 15.312,-64.924 20.243,-97.152 7.168,-46.788 13.935,-90.982 35.755,-119.535 1.98,-2.586 2.313,-6.076 0.853,-8.994 C 398.707,10.334 395.532,8.55 392.46,8.533 364.853,8.757 327.163,41.737 298.066,89.5 290.834,54.354 279.125,23.259 262.595,3.114 c -1.587,-1.929 -3.951,-3.072 -6.46,-3.115 -2.449,0.077 -4.898,1.024 -6.554,2.91 C 232.587,22.304 220.684,53.312 213.47,88.747 184.44,41.412 146.957,8.756 119.538,8.533 c -3.226,0.085 -6.255,1.801 -7.706,4.719 -1.459,2.918 -1.126,6.409 0.853,8.994 21.82,28.553 28.587,72.747 35.746,119.535 4.939,32.228 10.035,65.422 20.252,97.152 H 76.8 c -4.71,0 -8.533,3.814 -8.533,8.533 v 42.667 c 0,4.719 3.823,8.533 8.533,8.533 h 26.908 l 5.689,34.133 H 179.2 c 4.71,0 8.533,3.814 8.533,8.533 0,4.719 -3.823,8.533 -8.533,8.533 H 112.239 L 130.73,460.8 h -19.799 c -2.628,0 -5.103,1.212 -6.724,3.285 -1.613,2.065 -2.193,4.762 -1.553,7.313 l 8.533,34.133 c 0.947,3.797 4.361,6.468 8.277,6.468 h 273.067 c 3.917,0 7.33,-2.671 8.277,-6.468 l 8.533,-34.133 c 0.64,-2.551 0.068,-5.248 -1.553,-7.313 -1.613,-2.074 -4.096,-3.285 -6.724,-3.285 H 381.27 l 7.116,-42.667 h -89.719 c -4.71,0 -8.533,-3.814 -8.533,-8.533 0,-4.719 3.823,-8.533 8.533,-8.533 h 92.561 l 17.064,-102.4 H 435.2 c 4.71,0 8.533,-3.814 8.533,-8.533 v -42.667 c 0,-4.719 -3.823,-8.534 -8.533,-8.534 z m -49.333,256 H 126.13 l -4.267,-17.067 H 140.8 371.2 390.134 Z M 273.067,409.6 c 0,4.719 -3.823,8.533 -8.533,8.533 H 256 c -4.71,0 -8.533,-3.814 -8.533,-8.533 0,-4.719 3.823,-8.533 8.533,-8.533 h 8.533 c 4.711,0 8.534,3.814 8.534,8.533 z M 230.4,341.333 c 0,4.719 -3.823,8.533 -8.533,8.533 h -8.533 c -4.71,0 -8.533,-3.814 -8.533,-8.533 0,-4.719 3.823,-8.533 8.533,-8.533 h 8.533 c 4.71,0 8.533,3.814 8.533,8.533 z M 373.056,32.623 c -14.609,29.833 -20.352,67.337 -26.368,106.573 -5.103,33.357 -10.368,67.772 -21.342,99.738 h -21.877 c 0.275,-2.087 0.535,-4.194 0.778,-6.321 4.402,-37.296 3.913,-78.031 -1.497,-116.687 22.929,-44.075 50.253,-71.365 70.306,-83.303 z M 255.828,22.861 c 13.779,21.559 23.984,54.262 29.569,91.3 -0.016,0.505 -10e-4,1.012 0.073,1.517 5.894,40.285 6.139,84.758 0.752,123.255 H 264.533 V 110.936 c 0,-4.719 -3.823,-8.533 -8.533,-8.533 -4.71,0 -8.533,3.814 -8.533,8.533 v 127.997 h -21.269 c -4.517,-30.946 -5.444,-65.61 -2.735,-98.834 0.024,-0.292 0.046,-0.585 0.071,-0.877 0.152,-1.823 0.328,-3.636 0.502,-5.449 4.454,-45.541 15.655,-86.511 31.792,-110.912 z M 165.312,139.196 C 159.296,99.968 153.562,62.464 138.953,32.64 c 19.968,11.887 47.138,38.997 70.008,82.739 -5.279,38.97 -5.506,80.196 -0.743,118.004 0.21,1.702 0.433,3.388 0.662,5.066 0.022,0.161 0.041,0.324 0.063,0.484 H 186.654 C 175.68,206.967 170.415,172.553 165.312,139.196 Z M 426.667,281.6 h -25.6 -290.134 -25.6 V 256 h 95.296 38.25 0.014 74.675 0.029 37.774 95.296 z"
   id="path850"
   style="fill:#ffffff;fill-opacity:1" />
	</g>
</g><g
     id="g856"
     style="fill:#ffffff;fill-opacity:1">
</g><g
     id="g858"
     style="fill:#ffffff;fill-opacity:1">
</g><g
     id="g860"
     style="fill:#ffffff;fill-opacity:1">
</g><g
     id="g862"
     style="fill:#ffffff;fill-opacity:1">
</g><g
     id="g864"
     style="fill:#ffffff;fill-opacity:1">
</g><g
     id="g866"
     style="fill:#ffffff;fill-opacity:1">
</g><g
     id="g868"
     style="fill:#ffffff;fill-opacity:1">
</g><g
     id="g870"
     style="fill:#ffffff;fill-opacity:1">
</g><g
     id="g872"
     style="fill:#ffffff;fill-opacity:1">
</g><g
     id="g874"
     style="fill:#ffffff;fill-opacity:1">
</g><g
     id="g876"
     style="fill:#ffffff;fill-opacity:1">
</g><g
     id="g878"
     style="fill:#ffffff;fill-opacity:1">
</g><g
     id="g880"
     style="fill:#ffffff;fill-opacity:1">
</g><g
     id="g882"
     style="fill:#ffffff;fill-opacity:1">
</g><g
     id="g884"
     style="fill:#ffffff;fill-opacity:1">
</g></g></svg>
