<?xml version="1.0" encoding="UTF-8" standalone="no"?>
<svg
   xmlns:dc="http://purl.org/dc/elements/1.1/"
   xmlns:cc="http://creativecommons.org/ns#"
   xmlns:rdf="http://www.w3.org/1999/02/22-rdf-syntax-ns#"
   xmlns:svg="http://www.w3.org/2000/svg"
   xmlns="http://www.w3.org/2000/svg"
   xmlns:sodipodi="http://sodipodi.sourceforge.net/DTD/sodipodi-0.dtd"
   xmlns:inkscape="http://www.inkscape.org/namespaces/inkscape"
   version="1.1"
   id="Layer_1"
   x="0px"
   y="0px"
   width="21px"
   height="21px"
   viewBox="0 0 21 21"
   enable-background="new 0 0 21 21"
   xml:space="preserve"
   sodipodi:docname="hospital_11.svg"
   inkscape:version="1.0.1 (1.0.1+r73)"><metadata
   id="metadata13"><rdf:RDF><cc:Work
       rdf:about=""><dc:format>image/svg+xml</dc:format><dc:type
         rdf:resource="http://purl.org/dc/dcmitype/StillImage" /><dc:title /></cc:Work></rdf:RDF></metadata><defs
   id="defs11" /><sodipodi:namedview
   pagecolor="#ffffff"
   bordercolor="#666666"
   borderopacity="1"
   objecttolerance="10"
   gridtolerance="10"
   guidetolerance="10"
   inkscape:pageopacity="0"
   inkscape:pageshadow="2"
   inkscape:window-width="1858"
   inkscape:window-height="1021"
   id="namedview9"
   showgrid="false"
   inkscape:zoom="20.547619"
   inkscape:cx="9.1177657"
   inkscape:cy="9.5109835"
   inkscape:window-x="62"
   inkscape:window-y="27"
   inkscape:window-maximized="1"
   inkscape:current-layer="Layer_1"
   inkscape:document-rotation="0" />
<path
   d="M18.274,7.774C18.274,3.48,14.794,0,10.5,0S2.726,3.48,2.726,7.774c0,1.722,0.566,3.308,1.514,4.596l6.265,8.706l6.419-8.92  h-0.002C17.773,10.908,18.274,9.4,18.274,7.774z"
   id="path2"
   style="fill:#ee675c;fill-opacity:1" />
<circle
   fill="#FFFFFF"
   cx="10.5"
   cy="7.774"
   r="5.482"
   id="circle4"
   style="fill:#ff0000;fill-opacity:0" />
<polygon
   points="9.023,4.055 8.034,4.055 8.034,11.103 9.023,11.103 9.023,8.102 12.037,8.102 12.037,11.103 13.027,11.103 13.027,4.055 12.037,4.055 12.037,7.162 9.023,7.162 "
   id="polygon6"
   style="fill:#ffffff;fill-opacity:1"
   transform="matrix(1.6022431,0,0,1.4188422,-6.2501514,-2.625555)" />
</svg>
