<?xml version="1.0" encoding="UTF-8" standalone="no"?>
<svg
   xmlns:dc="http://purl.org/dc/elements/1.1/"
   xmlns:cc="http://creativecommons.org/ns#"
   xmlns:rdf="http://www.w3.org/1999/02/22-rdf-syntax-ns#"
   xmlns:svg="http://www.w3.org/2000/svg"
   xmlns="http://www.w3.org/2000/svg"
   xmlns:sodipodi="http://sodipodi.sourceforge.net/DTD/sodipodi-0.dtd"
   xmlns:inkscape="http://www.inkscape.org/namespaces/inkscape"
   version="1.1"
   id="Layer_1"
   x="0px"
   y="0px"
   width="21px"
   height="21px"
   viewBox="0 0 21 21"
   enable-background="new 0 0 21 21"
   xml:space="preserve"
   sodipodi:docname="ice_cream (21x21 px)-r-w.svg"
   inkscape:version="1.0.1 (1.0.1+r73)"><metadata
   id="metadata13"><rdf:RDF><cc:Work
       rdf:about=""><dc:format>image/svg+xml</dc:format><dc:type
         rdf:resource="http://purl.org/dc/dcmitype/StillImage" /><dc:title></dc:title></cc:Work></rdf:RDF></metadata><defs
   id="defs11" /><sodipodi:namedview
   pagecolor="#ffffff"
   bordercolor="#666666"
   borderopacity="1"
   objecttolerance="10"
   gridtolerance="10"
   guidetolerance="10"
   inkscape:pageopacity="0"
   inkscape:pageshadow="2"
   inkscape:window-width="1858"
   inkscape:window-height="1021"
   id="namedview9"
   showgrid="false"
   inkscape:zoom="29.058721"
   inkscape:cx="9.8273071"
   inkscape:cy="10.775207"
   inkscape:window-x="62"
   inkscape:window-y="27"
   inkscape:window-maximized="1"
   inkscape:current-layer="Layer_1"
   inkscape:document-rotation="0"
   showguides="true"
   inkscape:guide-bbox="true"><inkscape:grid
     type="xygrid"
     id="grid1023" /></sodipodi:namedview>
<path
   d="m 18.371335,7.7253326 c 0,-4.294 -3.48,-7.77400004 -7.774,-7.77400004 -4.2940001,0 -7.7740001,3.48000004 -7.7740001,7.77400004 0,1.722 0.566,3.3080004 1.514,4.5960004 l 6.2650001,8.706 6.419,-8.92 h -0.002 c 0.851,-1.248 1.352,-2.7560004 1.352,-4.3820004 z"
   id="path2"
   style="fill:#5491f5;fill-opacity:1" />
<circle
   fill="#FFFFFF"
   cx="10.5"
   cy="7.774"
   r="5.482"
   id="circle4"
   style="fill:#ff0000;fill-opacity:0" />

<g
   id="g912"
   transform="matrix(0.05152169,0,0,0.0404039,2.9298654,1.8922399)"
   style="fill:#ffffff;fill-opacity:1"><g
     id="g855"
     style="fill:#ffffff;fill-opacity:1">
	<path
   d="m 112.632,175.304 c 11.129,0 20.184,-9.055 20.184,-20.184 v -10.752 c 0,-2.098 0.91,-4.092 2.493,-5.466 1.584,-1.375 3.689,-1.996 5.764,-1.701 2.447,0.348 4.946,0.524 7.429,0.524 9.4,0 18.552,-2.503 25.77,-7.048 2.428,-1.528 5.534,-1.48 7.913,0.13 6.689,4.525 14.532,6.918 22.682,6.918 22.431,0 40.68,-18.249 40.68,-40.68 0,-19.212 -13.648,-35.97 -32.454,-39.846 -2.995,-0.617 -5.279,-3.051 -5.707,-6.079 C 203.276,21.978 177.962,0 148.5,0 119.038,0 93.724,21.978 89.615,51.121 89.187,54.149 86.903,56.583 83.908,57.2 65.102,61.076 51.454,77.834 51.454,97.046 c 0,18.937 13.416,35.645 31.9,39.728 3.316,0.731 5.678,3.672 5.678,7.068 v 11.278 c 0,11.129 9.055,20.184 20.184,20.184 z"
   id="path851"
   style="fill:#ffffff;fill-opacity:1" />
	<path
   d="m 204.866,152.203 c -9.499,0 -18.699,-2.401 -26.87,-6.982 -9.105,4.754 -19.648,7.177 -30.703,6.972 v 2.928 c 0,19.112 -15.549,34.661 -34.661,34.661 h -3.416 c -2.758,0 -5.438,-0.333 -8.011,-0.945 l 37.6,101.418 c 1.503,4.055 5.372,6.746 9.696,6.746 4.325,0 8.193,-2.691 9.696,-6.746 l 51.256,-138.257 c -1.514,0.124 -3.041,0.205 -4.587,0.205 z"
   id="path853"
   style="fill:#ffffff;fill-opacity:1" />
</g><g
     id="g857"
     style="fill:#ffffff;fill-opacity:1">
</g><g
     id="g859"
     style="fill:#ffffff;fill-opacity:1">
</g><g
     id="g861"
     style="fill:#ffffff;fill-opacity:1">
</g><g
     id="g863"
     style="fill:#ffffff;fill-opacity:1">
</g><g
     id="g865"
     style="fill:#ffffff;fill-opacity:1">
</g><g
     id="g867"
     style="fill:#ffffff;fill-opacity:1">
</g><g
     id="g869"
     style="fill:#ffffff;fill-opacity:1">
</g><g
     id="g871"
     style="fill:#ffffff;fill-opacity:1">
</g><g
     id="g873"
     style="fill:#ffffff;fill-opacity:1">
</g><g
     id="g875"
     style="fill:#ffffff;fill-opacity:1">
</g><g
     id="g877"
     style="fill:#ffffff;fill-opacity:1">
</g><g
     id="g879"
     style="fill:#ffffff;fill-opacity:1">
</g><g
     id="g881"
     style="fill:#ffffff;fill-opacity:1">
</g><g
     id="g883"
     style="fill:#ffffff;fill-opacity:1">
</g><g
     id="g885"
     style="fill:#ffffff;fill-opacity:1">
</g></g></svg>
