<?xml version="1.0" encoding="UTF-8" standalone="no"?>
<svg
   xmlns:dc="http://purl.org/dc/elements/1.1/"
   xmlns:cc="http://creativecommons.org/ns#"
   xmlns:rdf="http://www.w3.org/1999/02/22-rdf-syntax-ns#"
   xmlns:svg="http://www.w3.org/2000/svg"
   xmlns="http://www.w3.org/2000/svg"
   xmlns:sodipodi="http://sodipodi.sourceforge.net/DTD/sodipodi-0.dtd"
   xmlns:inkscape="http://www.inkscape.org/namespaces/inkscape"
   version="1.1"
   id="Layer_1"
   x="0px"
   y="0px"
   width="18.44278"
   height="25"
   viewBox="0 0 18.44278 25"
   enable-background="new 0 0 21 21"
   xml:space="preserve"
   sodipodi:docname="landmark_15.svg"
   inkscape:version="1.0.1 (1.0.1+r73)"><metadata
   id="metadata13"><rdf:RDF><cc:Work
       rdf:about=""><dc:format>image/svg+xml</dc:format><dc:type
         rdf:resource="http://purl.org/dc/dcmitype/StillImage" /><dc:title /></cc:Work></rdf:RDF></metadata><defs
   id="defs11" /><sodipodi:namedview
   pagecolor="#ffffff"
   bordercolor="#666666"
   borderopacity="1"
   objecttolerance="10"
   gridtolerance="10"
   guidetolerance="10"
   inkscape:pageopacity="0"
   inkscape:pageshadow="2"
   inkscape:window-width="1920"
   inkscape:window-height="967"
   id="namedview9"
   showgrid="false"
   inkscape:zoom="20.547619"
   inkscape:cx="6.3917657"
   inkscape:cy="9.5109835"
   inkscape:window-x="0"
   inkscape:window-y="27"
   inkscape:window-maximized="1"
   inkscape:current-layer="Layer_1"
   inkscape:document-rotation="0" />
<path
   d="M 18.442779,9.2213893 C 18.442779,4.127918 14.314861,0 9.221389,0 4.127918,0 0,4.127918 0,9.2213893 0,11.263997 0.6713798,13.145284 1.7958816,14.673088 L 9.22732,25 16.841431,14.419245 h -0.0024 c 1.009442,-1.480357 1.60372,-3.269122 1.60372,-5.1978557 z"
   id="path2"
   style="fill:#78909c;fill-opacity:1;stroke-width:1.18618" />
<circle
   fill="#FFFFFF"
   cx="9.2213898"
   cy="9.2213898"
   r="6.5026569"
   id="circle4"
   style="fill:#ff0000;fill-opacity:0;stroke-width:1.18618" />

<g
   id="Layer_2"
   data-name="Layer 2"
   transform="matrix(1.6451919,0,0,1.7316545,-8.0863233,-4.1447986)"
   style="fill:#ffffff;fill-opacity:1"><polygon
     class="cls-1"
     points="9.39,6.64 10.5,4.39 11.62,6.64 14.11,7 12.3,8.76 12.73,11.24 10.5,10.07 8.28,11.24 8.7,8.76 6.9,7 "
     id="polygon13"
     style="fill:#ffffff;fill-opacity:1" /></g></svg>
