<?xml version="1.0" encoding="UTF-8" standalone="no"?>
<svg
   xmlns:dc="http://purl.org/dc/elements/1.1/"
   xmlns:cc="http://creativecommons.org/ns#"
   xmlns:rdf="http://www.w3.org/1999/02/22-rdf-syntax-ns#"
   xmlns:svg="http://www.w3.org/2000/svg"
   xmlns="http://www.w3.org/2000/svg"
   xmlns:sodipodi="http://sodipodi.sourceforge.net/DTD/sodipodi-0.dtd"
   xmlns:inkscape="http://www.inkscape.org/namespaces/inkscape"
   version="1.1"
   id="Layer_1"
   x="0px"
   y="0px"
   width="18.442778"
   height="25"
   viewBox="0 0 18.442778 25"
   enable-background="new 0 0 21 21"
   xml:space="preserve"
   sodipodi:docname="library (25x25 px).svg"
   inkscape:version="1.0.1 (1.0.1+r73)"><metadata
   id="metadata13"><rdf:RDF><cc:Work
       rdf:about=""><dc:format>image/svg+xml</dc:format><dc:type
         rdf:resource="http://purl.org/dc/dcmitype/StillImage" /><dc:title /></cc:Work></rdf:RDF></metadata><defs
   id="defs11" /><sodipodi:namedview
   pagecolor="#ffffff"
   bordercolor="#666666"
   borderopacity="1"
   objecttolerance="10"
   gridtolerance="10"
   guidetolerance="10"
   inkscape:pageopacity="0"
   inkscape:pageshadow="2"
   inkscape:window-width="1920"
   inkscape:window-height="967"
   id="namedview9"
   showgrid="false"
   inkscape:zoom="29.058721"
   inkscape:cx="4.0216065"
   inkscape:cy="12.681525"
   inkscape:window-x="0"
   inkscape:window-y="27"
   inkscape:window-maximized="1"
   inkscape:current-layer="Layer_1"
   inkscape:document-rotation="0"
   showguides="true"
   inkscape:guide-bbox="true"><inkscape:grid
     type="xygrid"
     id="grid1023"
     originx="-2.823335"
     originy="0.04866744" /></sodipodi:namedview>
<path
   d="M 18.442778,9.2213891 C 18.442778,4.1279179 14.31486,0 9.2213891,0 4.1279179,0 0,4.1279179 0,9.2213891 0,11.263996 0.6713798,13.145284 1.7958815,14.673088 L 9.2273201,25 16.841431,14.419244 h -0.0024 c 1.009442,-1.480356 1.60372,-3.269121 1.60372,-5.1978549 z"
   id="path2"
   style="fill:#78909c;fill-opacity:1;stroke-width:1.18618" />
<circle
   fill="#FFFFFF"
   cx="9.1059322"
   cy="9.2791185"
   r="6.5026569"
   id="circle4"
   style="fill:#ff0000;fill-opacity:0;stroke-width:1.18618" />

<path
   d="m 11.314632,3.2886496 h 2.644254 v 8.2158424 h -2.895048 -0.160837 -0.08996 l -0.166287,0.01965 h -0.100869 l -0.177192,0.03604 -0.09814,0.02294 c -0.07088,0.01967 -0.141755,0.04588 -0.212632,0.07208 l -0.062704,0.02295 a 1.8891412,2.2710725 0 0 0 -0.2726032,0.137641 l -0.062704,0.04588 A 1.47751,1.7762211 0 0 0 9.515432,11.969836 V 5.4351908 a 1.7882779,2.1498175 0 0 1 1.799183,-2.1465412 z m -6.7660159,0 H 7.1928688 A 1.7882779,2.1498175 0 0 1 8.9811484,5.43519 v 6.570706 A 1.472058,1.7696669 0 0 0 8.8393936,11.897745 l -0.065417,-0.04916 A 1.9354838,2.3267842 0 0 0 8.5150013,11.710957 l -0.079056,-0.01967 c -0.068148,-0.02621 -0.1390272,-0.05244 -0.2071791,-0.07208 l -0.089954,-0.03605 -0.1744661,-0.03604 H 7.8607473 L 7.697185,11.527437 H 7.6044969 7.4436614 4.5486132 Z M 15.251025,13.123408 a 0.20445252,0.24578706 0 0 1 -0.204453,0.24251 H 11.65266 c -1.55929,0 -2.194457,0.48502 -2.194457,1.677907 a 0.20308949,0.24414848 0 1 1 -0.4061776,0 c 0,-1.192887 -0.6351669,-1.677907 -2.1808286,-1.677907 H 3.460929 A 0.20445252,0.24578706 0 0 1 3.2564766,13.123408 V 4.3307868 A 0.20445252,0.24578706 0 0 1 3.460929,4.0849998 h 0.5452068 v 7.7504852 a 0.27260335,0.32771609 0 0 0 0.272604,0.327715 h 2.914129 c 1.4802365,0 1.7855528,0.527624 1.7855528,1.310865 a 0.27260346,0.32771624 0 1 0 0.5452066,0 c 0,-0.793072 0.3025903,-1.310865 1.7855528,-1.310865 h 2.925034 a 0.27260335,0.32771609 0 0 0 0.272604,-0.327715 V 4.0849998 h 0.545205 a 0.20445252,0.24578706 0 0 1 0.204453,0.245787 z"
   fill="#231f20"
   id="path907"
   style="fill:#ffffff;fill-opacity:1;stroke-width:0.29889" /></svg>
