<?xml version="1.0" encoding="UTF-8" standalone="no"?>
<svg
   xmlns:dc="http://purl.org/dc/elements/1.1/"
   xmlns:cc="http://creativecommons.org/ns#"
   xmlns:rdf="http://www.w3.org/1999/02/22-rdf-syntax-ns#"
   xmlns:svg="http://www.w3.org/2000/svg"
   xmlns="http://www.w3.org/2000/svg"
   xmlns:sodipodi="http://sodipodi.sourceforge.net/DTD/sodipodi-0.dtd"
   xmlns:inkscape="http://www.inkscape.org/namespaces/inkscape"
   version="1.1"
   id="Layer_1"
   x="0px"
   y="0px"
   width="21px"
   height="21px"
   viewBox="0 0 21 21"
   enable-background="new 0 0 21 21"
   xml:space="preserve"
   sodipodi:docname="library (21x21 px).svg"
   inkscape:version="1.0.1 (1.0.1+r73)"><metadata
   id="metadata13"><rdf:RDF><cc:Work
       rdf:about=""><dc:format>image/svg+xml</dc:format><dc:type
         rdf:resource="http://purl.org/dc/dcmitype/StillImage" /><dc:title /></cc:Work></rdf:RDF></metadata><defs
   id="defs11" /><sodipodi:namedview
   pagecolor="#ffffff"
   bordercolor="#666666"
   borderopacity="1"
   objecttolerance="10"
   gridtolerance="10"
   guidetolerance="10"
   inkscape:pageopacity="0"
   inkscape:pageshadow="2"
   inkscape:window-width="1920"
   inkscape:window-height="967"
   id="namedview9"
   showgrid="false"
   inkscape:zoom="29.058721"
   inkscape:cx="6.8449414"
   inkscape:cy="10.568802"
   inkscape:window-x="0"
   inkscape:window-y="27"
   inkscape:window-maximized="1"
   inkscape:current-layer="Layer_1"
   inkscape:document-rotation="0"
   showguides="true"
   inkscape:guide-bbox="true"><inkscape:grid
     type="xygrid"
     id="grid1023" /></sodipodi:namedview>
<path
   d="m 18.371335,7.7253326 c 0,-4.294 -3.48,-7.77400004 -7.774,-7.77400004 -4.2940001,0 -7.7740001,3.48000004 -7.7740001,7.77400004 0,1.722 0.566,3.3080004 1.514,4.5960004 l 6.2650001,8.706 6.419,-8.92 h -0.002 c 0.851,-1.248 1.352,-2.7560004 1.352,-4.3820004 z"
   id="path2"
   style="fill:#78909c;fill-opacity:1" />
<circle
   fill="#FFFFFF"
   cx="10.5"
   cy="7.774"
   r="5.482"
   id="circle4"
   style="fill:#ff0000;fill-opacity:0" />

<path
   d="m 12.357437,2.8049432 h 2.203545 v 6.8465462 h -2.41254 -0.13403 -0.07497 l -0.138573,0.016382 h -0.08405 l -0.14766,0.030036 -0.08178,0.019118 c -0.05906,0.016391 -0.118129,0.038236 -0.177194,0.060072 l -0.05225,0.019118 a 1.5742843,1.8925635 0 0 0 -0.227169,0.1147015 l -0.05225,0.038236 a 1.2312584,1.4801866 0 0 0 -0.1204,0.090126 V 4.5937304 a 1.4902315,1.7915175 0 0 1 1.499301,-1.7887872 z m -5.6383456,0 H 8.9226352 A 1.4902315,1.7915175 0 0 1 10.412868,4.5937297 V 10.069327 A 1.226715,1.4747248 0 0 0 10.294739,9.9792011 L 10.240221,9.938238 A 1.6129031,1.93899 0 0 0 10.024408,9.8235438 L 9.9585265,9.8071531 C 9.9017356,9.7853079 9.8426701,9.7634536 9.7858774,9.747081 L 9.7109138,9.7170359 9.5655256,9.6869999 h -0.086325 l -0.136302,-0.016394 h -0.07724 -0.13403 -2.4125397 z m 8.9186726,8.1956458 a 0.17037709,0.20482288 0 0 1 -0.170377,0.202092 h -2.82826 c -1.299408,0 -1.828714,0.404184 -1.828714,1.398258 a 0.16924124,0.2034574 0 1 1 -0.338481,0 c 0,-0.994074 -0.5293055,-1.398258 -1.8173568,-1.398258 H 5.8126855 A 0.17037709,0.20482288 0 0 1 5.6423085,11.000589 V 3.6733922 a 0.17037709,0.20482288 0 0 1 0.170377,-0.2048228 h 0.4543389 v 6.4587478 a 0.22716945,0.27309718 0 0 0 0.22717,0.2730968 h 2.4284408 c 1.2335308,0 1.4879608,0.439687 1.4879608,1.092389 a 0.22716955,0.27309731 0 1 0 0.454338,0 c 0,-0.660895 0.252159,-1.092389 1.48796,-1.092389 h 2.437529 a 0.22716945,0.27309718 0 0 0 0.22717,-0.2730968 V 3.4685694 h 0.454337 a 0.17037709,0.20482288 0 0 1 0.170378,0.2048228 z"
   fill="#231f20"
   id="path907"
   style="fill:#ffffff;fill-opacity:1;stroke-width:0.249075" /></svg>
