<?xml version="1.0" encoding="UTF-8" standalone="no"?>
<svg
   xmlns:dc="http://purl.org/dc/elements/1.1/"
   xmlns:cc="http://creativecommons.org/ns#"
   xmlns:rdf="http://www.w3.org/1999/02/22-rdf-syntax-ns#"
   xmlns:svg="http://www.w3.org/2000/svg"
   xmlns="http://www.w3.org/2000/svg"
   xmlns:sodipodi="http://sodipodi.sourceforge.net/DTD/sodipodi-0.dtd"
   xmlns:inkscape="http://www.inkscape.org/namespaces/inkscape"
   version="1.1"
   id="Layer_1"
   x="0px"
   y="0px"
   width="18.442778"
   height="25"
   viewBox="0 0 18.442778 25"
   enable-background="new 0 0 21 21"
   xml:space="preserve"
   sodipodi:docname="muslim_15.svg"
   inkscape:version="1.0.1 (1.0.1+r73)"><metadata
   id="metadata13"><rdf:RDF><cc:Work
       rdf:about=""><dc:format>image/svg+xml</dc:format><dc:type
         rdf:resource="http://purl.org/dc/dcmitype/StillImage" /><dc:title></dc:title></cc:Work></rdf:RDF></metadata><defs
   id="defs11" /><sodipodi:namedview
   pagecolor="#ffffff"
   bordercolor="#666666"
   borderopacity="1"
   objecttolerance="10"
   gridtolerance="10"
   guidetolerance="10"
   inkscape:pageopacity="0"
   inkscape:pageshadow="2"
   inkscape:window-width="1858"
   inkscape:window-height="1021"
   id="namedview9"
   showgrid="false"
   inkscape:zoom="29.058721"
   inkscape:cx="12.241442"
   inkscape:cy="11.305488"
   inkscape:window-x="62"
   inkscape:window-y="27"
   inkscape:window-maximized="1"
   inkscape:current-layer="Layer_1"
   inkscape:document-rotation="0"
   showguides="true"
   inkscape:guide-bbox="true"><inkscape:grid
     type="xygrid"
     id="grid1023"
     originx="-2.823335"
     originy="0.04866744" /></sodipodi:namedview>
<path
   d="M 18.442778,9.2213891 C 18.442778,4.1279179 14.31486,0 9.2213891,0 4.1279179,0 0,4.1279179 0,9.2213891 0,11.263996 0.6713798,13.145284 1.7958815,14.673088 L 9.2273201,25 16.841431,14.419244 h -0.0024 c 1.009442,-1.480356 1.60372,-3.269121 1.60372,-5.1978549 z"
   id="path2"
   style="fill:#78909c;fill-opacity:1;stroke-width:1.18618" />
<circle
   fill="#FFFFFF"
   cx="9.1059322"
   cy="9.2791185"
   r="6.5026569"
   id="circle4"
   style="fill:#ff0000;fill-opacity:0;stroke-width:1.18618" />

<g
   style="overflow:inherit;fill:#ffffff;fill-opacity:1"
   id="g904"
   transform="matrix(0.23721454,0,0,0.23732939,3.2954684,3.4345234)"><path
     d="m 48.022,26.652 c -1.396,6.519 -6.192,11.874 -12.516,13.976 -1.94,0.646 -3.95,0.973 -5.975,0.973 -8.149,0 -15.354,-5.19 -17.93,-12.914 -1.595,-4.781 -1.229,-9.896 1.03,-14.404 2.259,-4.507 6.141,-7.867 10.93,-9.46 4.505,-1.496 9.397,-1.246 13.71,0.689 L 38.206,3.749 C 31.943,-0.12 24.142,-1.046 17.128,1.287 10.785,3.396 5.644,7.846 2.652,13.815 -0.34,19.785 -0.824,26.561 1.288,32.895 4.7,43.126 14.243,50 25.035,50 27.717,50 30.378,49.567 32.946,48.714 42.519,45.53 49.212,36.984 49.998,26.94 Z M 35.697,14.603 30.683,5.219 l -2.55,10.477 -10.429,2.05 9.547,5.421 -1.642,10.796 8.107,-7.374 10.046,4.82 -5.131,-10.027 8.124,-7.842 z"
     id="path893"
     style="fill:#ffffff;fill-opacity:1" /></g></svg>
