<?xml version="1.0" encoding="UTF-8" standalone="no"?>
<svg
   xmlns:dc="http://purl.org/dc/elements/1.1/"
   xmlns:cc="http://creativecommons.org/ns#"
   xmlns:rdf="http://www.w3.org/1999/02/22-rdf-syntax-ns#"
   xmlns:svg="http://www.w3.org/2000/svg"
   xmlns="http://www.w3.org/2000/svg"
   xmlns:sodipodi="http://sodipodi.sourceforge.net/DTD/sodipodi-0.dtd"
   xmlns:inkscape="http://www.inkscape.org/namespaces/inkscape"
   version="1.1"
   id="Layer_1"
   x="0px"
   y="0px"
   width="15.548"
   height="21.076"
   viewBox="0 0 15.548 21.076"
   enable-background="new 0 0 21 21"
   xml:space="preserve"
   sodipodi:docname="govt_office (21x21 px).svg"
   inkscape:version="1.0.1 (1.0.1+r73)"><metadata
   id="metadata13"><rdf:RDF><cc:Work
       rdf:about=""><dc:format>image/svg+xml</dc:format><dc:type
         rdf:resource="http://purl.org/dc/dcmitype/StillImage" /><dc:title></dc:title></cc:Work></rdf:RDF></metadata><defs
   id="defs11" /><sodipodi:namedview
   pagecolor="#ffffff"
   bordercolor="#666666"
   borderopacity="1"
   objecttolerance="10"
   gridtolerance="10"
   guidetolerance="10"
   inkscape:pageopacity="0"
   inkscape:pageshadow="2"
   inkscape:window-width="1366"
   inkscape:window-height="655"
   id="namedview9"
   showgrid="false"
   inkscape:zoom="20.547619"
   inkscape:cx="1.0494747"
   inkscape:cy="10.821187"
   inkscape:window-x="0"
   inkscape:window-y="27"
   inkscape:window-maximized="1"
   inkscape:current-layer="Layer_1"
   inkscape:document-rotation="0" />
<path
   d="M 15.548,7.774 C 15.548,3.48 12.068,0 7.774,0 3.48,0 0,3.48 0,7.774 0,9.496 0.566,11.082 1.514,12.37 l 6.265,8.706 6.419,-8.92 H 14.196 C 15.047,10.908 15.548,9.4 15.548,7.774 Z"
   id="path2"
   style="fill:#78909c;fill-opacity:1" />
<circle
   fill="#FFFFFF"
   cx="7.7740002"
   cy="7.7740002"
   r="5.4819999"
   id="circle4"
   style="fill:#ff0000;fill-opacity:0" />

<g
   id="g903"
   transform="matrix(0.03367003,0,0,0.04139471,2.7764126,1.604206)"
   style="fill:#ffffff;fill-opacity:1"><path
     d="m 287.631,269.288 c 5.174,0 9.369,-4.195 9.369,-9.369 0,-5.174 -4.195,-9.369 -9.369,-9.369 h -6.09 v -21.549 c 0,-5.174 -4.195,-9.369 -9.369,-9.369 h -6.089 V 114.698 h 14.529 c 0.006,-10e-4 0.011,-10e-4 0.018,0 5.175,0 9.369,-4.195 9.369,-9.369 0,-3.784 -2.243,-7.045 -5.473,-8.524 L 152.801,28.757 c -2.697,-1.393 -5.903,-1.393 -8.601,0 L 12.087,97.005 c -3.84,1.984 -5.825,6.337 -4.803,10.537 1.02,4.201 4.782,7.157 9.104,7.157 h 14.53 v 104.934 h -6.09 c -5.174,0 -9.369,4.195 -9.369,9.369 v 21.549 h -6.09 c -5.174,0 -9.369,4.195 -9.369,9.369 0,5.174 4.195,9.369 9.369,9.369 H 287.631 Z M 247.345,219.632 H 235.164 V 114.698 h 12.181 z m -74.016,0 V 114.698 h 43.097 v 104.934 z m -92.754,0 V 114.698 h 43.096 v 104.934 z m 61.834,-104.934 h 12.182 V 219.632 H 142.409 Z M 54.938,95.96 148.501,47.627 242.063,95.96 Z m -5.282,18.738 H 61.837 V 219.632 H 49.656 Z M 262.803,238.37 v 12.18 H 34.197 v -12.18 z"
     id="path848"
     style="fill:#ffffff;fill-opacity:1" /><g
     id="g850"
     style="fill:#ffffff;fill-opacity:1">
</g><g
     id="g852"
     style="fill:#ffffff;fill-opacity:1">
</g><g
     id="g854"
     style="fill:#ffffff;fill-opacity:1">
</g><g
     id="g856"
     style="fill:#ffffff;fill-opacity:1">
</g><g
     id="g858"
     style="fill:#ffffff;fill-opacity:1">
</g><g
     id="g860"
     style="fill:#ffffff;fill-opacity:1">
</g><g
     id="g862"
     style="fill:#ffffff;fill-opacity:1">
</g><g
     id="g864"
     style="fill:#ffffff;fill-opacity:1">
</g><g
     id="g866"
     style="fill:#ffffff;fill-opacity:1">
</g><g
     id="g868"
     style="fill:#ffffff;fill-opacity:1">
</g><g
     id="g870"
     style="fill:#ffffff;fill-opacity:1">
</g><g
     id="g872"
     style="fill:#ffffff;fill-opacity:1">
</g><g
     id="g874"
     style="fill:#ffffff;fill-opacity:1">
</g><g
     id="g876"
     style="fill:#ffffff;fill-opacity:1">
</g><g
     id="g878"
     style="fill:#ffffff;fill-opacity:1">
</g></g></svg>
