<?xml version="1.0" encoding="UTF-8" standalone="no"?>
<svg
   xmlns:dc="http://purl.org/dc/elements/1.1/"
   xmlns:cc="http://creativecommons.org/ns#"
   xmlns:rdf="http://www.w3.org/1999/02/22-rdf-syntax-ns#"
   xmlns:svg="http://www.w3.org/2000/svg"
   xmlns="http://www.w3.org/2000/svg"
   xmlns:sodipodi="http://sodipodi.sourceforge.net/DTD/sodipodi-0.dtd"
   xmlns:inkscape="http://www.inkscape.org/namespaces/inkscape"
   version="1.1"
   id="Layer_1"
   x="0px"
   y="0px"
   width="21px"
   height="21px"
   viewBox="0 0 21 21"
   enable-background="new 0 0 21 21"
   xml:space="preserve"
   sodipodi:docname="park (21x21 px)-r-w.svg"
   inkscape:version="1.0.1 (1.0.1+r73)"><metadata
   id="metadata13"><rdf:RDF><cc:Work
       rdf:about=""><dc:format>image/svg+xml</dc:format><dc:type
         rdf:resource="http://purl.org/dc/dcmitype/StillImage" /><dc:title></dc:title></cc:Work></rdf:RDF></metadata><defs
   id="defs11" /><sodipodi:namedview
   pagecolor="#ffffff"
   bordercolor="#666666"
   borderopacity="1"
   objecttolerance="10"
   gridtolerance="10"
   guidetolerance="10"
   inkscape:pageopacity="0"
   inkscape:pageshadow="2"
   inkscape:window-width="1858"
   inkscape:window-height="1021"
   id="namedview9"
   showgrid="false"
   inkscape:zoom="29.058721"
   inkscape:cx="7.6213794"
   inkscape:cy="10.627156"
   inkscape:window-x="62"
   inkscape:window-y="27"
   inkscape:window-maximized="1"
   inkscape:current-layer="Layer_1"
   inkscape:document-rotation="0" />
<path
   d="M18.274,7.774C18.274,3.48,14.794,0,10.5,0S2.726,3.48,2.726,7.774c0,1.722,0.566,3.308,1.514,4.596l6.265,8.706l6.419-8.92  h-0.002C17.773,10.908,18.274,9.4,18.274,7.774z"
   id="path2"
   style="fill:#36a853;fill-opacity:1" />
<circle
   fill="#FFFFFF"
   cx="10.5"
   cy="7.774"
   r="5.482"
   id="circle4"
   style="fill:#ff0000;fill-opacity:0" />

<g
   id="g1048"
   transform="matrix(0.0354781,0,0,0.03367026,5.1941901,2.8987232)"
   style="fill:#ffffff;fill-opacity:1"><g
     id="g991"
     style="fill:#ffffff;fill-opacity:1">
	<path
   d="m 144.865,162.638 v 11.946 c 0,4.11 -2.164,8.014 -5.817,9.897 -4.225,2.178 -9.266,1.358 -12.574,-1.948 l -7.817,-7.819 -7.352,7.352 18.259,18.258 c 2.034,2.035 3.155,4.74 3.155,7.618 v 79.593 c 0,5.226 4.237,9.463 9.463,9.463 h 15.763 c 5.226,0 9.463,-4.237 9.463,-9.463 V 219.91 c 0,-2.878 1.12,-5.583 3.155,-7.618 l 15.133,-15.133 -7.352,-7.352 -4.691,4.692 c -3.307,3.303 -8.339,4.122 -12.565,1.953 -3.657,-1.877 -5.826,-5.779 -5.826,-9.889 v -23.925 z"
   id="path987"
   style="fill:#ffffff;fill-opacity:1" />
	<path
   d="m 289.432,122.216 c 0,-34.74 -26.947,-63.303 -61.037,-65.881 C 216.498,22.81 184.664,0 148.5,0 112.336,0 80.502,22.81 68.605,56.336 34.515,58.914 7.568,87.477 7.568,122.217 c 0,17.725 7.026,34.476 19.469,46.838 -0.501,3.078 -0.753,6.191 -0.753,9.307 0,32.009 26.041,58.05 58.049,58.05 h 34.491 V 209.236 L 99.272,189.685 c -2.034,-2.033 -3.156,-4.739 -3.156,-7.618 0,-2.879 1.121,-5.585 3.158,-7.619 l 11.765,-11.766 c 4.201,-4.199 11.035,-4.199 15.236,0 l 4.695,4.696 v -7.861 c 0,-5.94 4.833,-10.773 10.773,-10.773 h 16.641 c 5.94,0 10.773,4.832 10.773,10.773 v 19.828 l 1.569,-1.57 c 2.034,-2.034 4.74,-3.155 7.617,-3.155 2.878,-0.001 5.584,1.12 7.619,3.155 l 11.766,11.766 c 0,0 0,0 0.001,0 4.2,4.201 4.2,11.036 0,15.236 l -16.426,16.426 v 15.209 h 31.365 c 32.008,0 58.049,-26.041 58.049,-58.05 0,-3.116 -0.252,-6.229 -0.753,-9.307 12.442,-12.363 19.468,-29.114 19.468,-46.839 z"
   id="path989"
   style="fill:#ffffff;fill-opacity:1" />
</g><g
     id="g993"
     style="fill:#ffffff;fill-opacity:1">
</g><g
     id="g995"
     style="fill:#ffffff;fill-opacity:1">
</g><g
     id="g997"
     style="fill:#ffffff;fill-opacity:1">
</g><g
     id="g999"
     style="fill:#ffffff;fill-opacity:1">
</g><g
     id="g1001"
     style="fill:#ffffff;fill-opacity:1">
</g><g
     id="g1003"
     style="fill:#ffffff;fill-opacity:1">
</g><g
     id="g1005"
     style="fill:#ffffff;fill-opacity:1">
</g><g
     id="g1007"
     style="fill:#ffffff;fill-opacity:1">
</g><g
     id="g1009"
     style="fill:#ffffff;fill-opacity:1">
</g><g
     id="g1011"
     style="fill:#ffffff;fill-opacity:1">
</g><g
     id="g1013"
     style="fill:#ffffff;fill-opacity:1">
</g><g
     id="g1015"
     style="fill:#ffffff;fill-opacity:1">
</g><g
     id="g1017"
     style="fill:#ffffff;fill-opacity:1">
</g><g
     id="g1019"
     style="fill:#ffffff;fill-opacity:1">
</g><g
     id="g1021"
     style="fill:#ffffff;fill-opacity:1">
</g></g></svg>
