<?xml version="1.0" encoding="UTF-8" standalone="no"?>
<svg
   xmlns:dc="http://purl.org/dc/elements/1.1/"
   xmlns:cc="http://creativecommons.org/ns#"
   xmlns:rdf="http://www.w3.org/1999/02/22-rdf-syntax-ns#"
   xmlns:svg="http://www.w3.org/2000/svg"
   xmlns="http://www.w3.org/2000/svg"
   xmlns:sodipodi="http://sodipodi.sourceforge.net/DTD/sodipodi-0.dtd"
   xmlns:inkscape="http://www.inkscape.org/namespaces/inkscape"
   version="1.1"
   id="Layer_1"
   x="0px"
   y="0px"
   width="21px"
   height="21px"
   viewBox="0 0 21 21"
   enable-background="new 0 0 21 21"
   xml:space="preserve"
   sodipodi:docname="pharmacy (21x21 px).svg"
   inkscape:version="1.0.1 (1.0.1+r73)"><metadata
   id="metadata13"><rdf:RDF><cc:Work
       rdf:about=""><dc:format>image/svg+xml</dc:format><dc:type
         rdf:resource="http://purl.org/dc/dcmitype/StillImage" /><dc:title></dc:title></cc:Work></rdf:RDF></metadata><defs
   id="defs11" /><sodipodi:namedview
   pagecolor="#ffffff"
   bordercolor="#666666"
   borderopacity="1"
   objecttolerance="10"
   gridtolerance="10"
   guidetolerance="10"
   inkscape:pageopacity="0"
   inkscape:pageshadow="2"
   inkscape:window-width="1858"
   inkscape:window-height="1021"
   id="namedview9"
   showgrid="false"
   inkscape:zoom="29.058721"
   inkscape:cx="9.8433418"
   inkscape:cy="10.823766"
   inkscape:window-x="62"
   inkscape:window-y="27"
   inkscape:window-maximized="1"
   inkscape:current-layer="Layer_1"
   inkscape:document-rotation="0"
   showguides="true"
   inkscape:guide-bbox="true"><inkscape:grid
     type="xygrid"
     id="grid1023" /></sodipodi:namedview>
<path
   d="m 18.371335,7.7253326 c 0,-4.294 -3.48,-7.77400004 -7.774,-7.77400004 -4.2940001,0 -7.7740001,3.48000004 -7.7740001,7.77400004 0,1.722 0.566,3.3080004 1.514,4.5960004 l 6.2650001,8.706 6.419,-8.92 h -0.002 c 0.851,-1.248 1.352,-2.7560004 1.352,-4.3820004 z"
   id="path2"
   style="fill:#ee675c;fill-opacity:1" />
<circle
   fill="#FFFFFF"
   cx="10.5"
   cy="7.774"
   r="5.482"
   id="circle4"
   style="fill:#ff0000;fill-opacity:0" />

<path
   d="m 12.608579,5.5374443 1.07,-1.2065527 c 0.05991,0.00359 0.120101,0.00359 0.18,0 0.690401,-3.134e-4 1.249701,-0.4389815 1.249401,-0.9798148 -4.01e-4,-0.5409116 -0.5603,-0.9791879 -1.2507,-0.9788746 -0.6903,3.133e-4 -1.249701,0.4389816 -1.2493,0.9798148 0,0.010263 1.99e-4,0.020527 5.99e-4,0.030868 0,0 0,0.054842 0,0.078348 l -2.5,2.0762115 z m 2.5,1.5669517 V 6.3209202 H 6.1085789 V 7.104396 L 7.608579,9.8465612 6.1085789,12.588726 v 0.783476 h 9.0000001 v -0.783476 l -1,-2.7421648 z m -2,3.133903 H 11.10858 v 1.566951 h -1.000001 v -1.566951 h -2 V 9.4548233 h 2 V 7.8878718 h 1.000001 v 1.5669515 h 1.999999 z"
   id="path1017"
   style="fill:#ffffff;fill-opacity:1;stroke-width:0.885141" /></svg>
