<?xml version="1.0" encoding="UTF-8" standalone="no"?>
<svg
   xmlns:dc="http://purl.org/dc/elements/1.1/"
   xmlns:cc="http://creativecommons.org/ns#"
   xmlns:rdf="http://www.w3.org/1999/02/22-rdf-syntax-ns#"
   xmlns:svg="http://www.w3.org/2000/svg"
   xmlns="http://www.w3.org/2000/svg"
   xmlns:sodipodi="http://sodipodi.sourceforge.net/DTD/sodipodi-0.dtd"
   xmlns:inkscape="http://www.inkscape.org/namespaces/inkscape"
   version="1.1"
   id="Layer_1"
   x="0px"
   y="0px"
   width="18.442778"
   height="25"
   viewBox="0 0 18.442778 25"
   enable-background="new 0 0 21 21"
   xml:space="preserve"
   sodipodi:docname="pharmacy_15.svg"
   inkscape:version="1.0.1 (1.0.1+r73)"><metadata
   id="metadata13"><rdf:RDF><cc:Work
       rdf:about=""><dc:format>image/svg+xml</dc:format><dc:type
         rdf:resource="http://purl.org/dc/dcmitype/StillImage" /><dc:title /></cc:Work></rdf:RDF></metadata><defs
   id="defs11" /><sodipodi:namedview
   pagecolor="#ffffff"
   bordercolor="#666666"
   borderopacity="1"
   objecttolerance="10"
   gridtolerance="10"
   guidetolerance="10"
   inkscape:pageopacity="0"
   inkscape:pageshadow="2"
   inkscape:window-width="1858"
   inkscape:window-height="1021"
   id="namedview9"
   showgrid="false"
   inkscape:zoom="29.058721"
   inkscape:cx="7.0200069"
   inkscape:cy="10.872433"
   inkscape:window-x="62"
   inkscape:window-y="27"
   inkscape:window-maximized="1"
   inkscape:current-layer="Layer_1"
   inkscape:document-rotation="0"
   showguides="true"
   inkscape:guide-bbox="true"><inkscape:grid
     type="xygrid"
     id="grid1023"
     originx="-2.823335"
     originy="0.04866744" /></sodipodi:namedview>
<path
   d="M 18.442778,9.2213889 C 18.442778,4.1279179 14.31486,0 9.2213891,0 4.1279179,0 0,4.1279179 0,9.2213889 0,11.263996 0.6713798,13.145284 1.7958814,14.673087 L 9.2273201,25 16.84143,14.419244 h -0.0024 c 1.009443,-1.480357 1.603721,-3.269122 1.603721,-5.1978551 z"
   id="path2"
   style="fill:#ee675c;fill-opacity:1;stroke-width:1.18618" />
<circle
   fill="#FFFFFF"
   cx="9.1059322"
   cy="9.2791185"
   r="6.5026569"
   id="circle4"
   style="fill:#ff0000;fill-opacity:0;stroke-width:1.18618" />

<path
   d="M 11.607092,6.6261524 12.87631,5.1949597 c 0.07107,0.00425 0.142461,0.00425 0.213511,0 0.818944,-3.717e-4 1.482376,-0.5207126 1.482019,-1.16224 -4.75e-4,-0.6416203 -0.664618,-1.1614962 -1.483558,-1.1611246 -0.818823,3.716e-4 -1.482375,0.5207126 -1.4819,1.1622399 0,0.012173 2.36e-4,0.024349 7.1e-4,0.036615 0,0 0,0.065053 0,0.092935 L 8.6416341,6.6261524 Z m 2.96546,1.8586919 V 7.5554984 H 3.8969015 V 8.4848443 L 5.6761766,11.737554 3.8969015,14.990265 V 15.91961 H 14.572552 V 14.990265 L 13.386367,11.737554 Z M 12.200184,12.202227 H 9.8278201 v 1.858691 H 8.6416341 V 12.202227 H 6.2692682 V 11.272881 H 8.6416341 V 9.4141902 h 1.186186 v 1.8586908 h 2.3723639 z"
   id="path1017"
   style="fill:#ffffff;fill-opacity:1;stroke-width:1.04994" /></svg>
