<?xml version="1.0" encoding="UTF-8" standalone="no"?>
<svg
   xmlns:dc="http://purl.org/dc/elements/1.1/"
   xmlns:cc="http://creativecommons.org/ns#"
   xmlns:rdf="http://www.w3.org/1999/02/22-rdf-syntax-ns#"
   xmlns:svg="http://www.w3.org/2000/svg"
   xmlns="http://www.w3.org/2000/svg"
   xmlns:sodipodi="http://sodipodi.sourceforge.net/DTD/sodipodi-0.dtd"
   xmlns:inkscape="http://www.inkscape.org/namespaces/inkscape"
   version="1.1"
   id="Layer_1"
   x="0px"
   y="0px"
   width="18.44278"
   height="25"
   viewBox="0 0 18.44278 25"
   enable-background="new 0 0 21 21"
   xml:space="preserve"
   sodipodi:docname="playground_15.svg"
   inkscape:version="1.0.1 (1.0.1+r73)"><metadata
   id="metadata13"><rdf:RDF><cc:Work
       rdf:about=""><dc:format>image/svg+xml</dc:format><dc:type
         rdf:resource="http://purl.org/dc/dcmitype/StillImage" /><dc:title /></cc:Work></rdf:RDF></metadata><defs
   id="defs11" /><sodipodi:namedview
   pagecolor="#ffffff"
   bordercolor="#666666"
   borderopacity="1"
   objecttolerance="10"
   gridtolerance="10"
   guidetolerance="10"
   inkscape:pageopacity="0"
   inkscape:pageshadow="2"
   inkscape:window-width="1858"
   inkscape:window-height="1021"
   id="namedview9"
   showgrid="false"
   inkscape:zoom="20.547619"
   inkscape:cx="6.3917657"
   inkscape:cy="9.5109835"
   inkscape:window-x="62"
   inkscape:window-y="27"
   inkscape:window-maximized="1"
   inkscape:current-layer="Layer_1"
   inkscape:document-rotation="0" />
<path
   d="M 18.442779,9.2213893 C 18.442779,4.127918 14.314861,0 9.221389,0 4.127918,0 0,4.127918 0,9.2213893 0,11.263997 0.6713798,13.145284 1.7958816,14.673088 L 9.22732,25 16.841431,14.419245 h -0.0024 c 1.009442,-1.480357 1.60372,-3.269122 1.60372,-5.1978557 z"
   id="path2"
   style="fill:#36a853;fill-opacity:1;stroke-width:1.18618" />
<circle
   fill="#FFFFFF"
   cx="9.2213898"
   cy="9.2213898"
   r="6.5026569"
   id="circle4"
   style="fill:#ff0000;fill-opacity:0;stroke-width:1.18618" />

<g
   style="overflow:inherit;fill:#ffffff;fill-opacity:1"
   id="g874"
   transform="matrix(0.25786594,0,0,0.25786736,2.7916775,2.767537)"><path
     d="m 7.206,31.141 c 2.885,0 5.219,-2.399 5.219,-5.368 0,-2.953 -2.334,-5.353 -5.219,-5.353 -2.873,0 -5.206,2.4 -5.206,5.353 0,2.968 2.333,5.368 5.206,5.368 z m 29.23,9.216 c 0.243,-0.172 0.564,-0.12 0.741,0.117 l 0.965,1.372 c 0.164,0.238 0.114,0.58 -0.116,0.766 l -7.08,5.287 c -0.229,0.172 -0.562,0.118 -0.743,-0.118 l -0.962,-1.372 c -0.165,-0.238 -0.113,-0.579 0.116,-0.764 z m -8.003,-6.817 -2.808,-5.063 -1.474,1.107 2.808,5.09 z M 21.882,21.713 10.962,2 8.873,2.014 20.395,22.834 Z m 10.281,10.43 C 32.78,31.682 34.192,31 35,31 h 10 c 1.974,0 3,1.986 3,4.004 C 48,37.034 46.974,38 45,38 h -9 l -10.836,8.502 c -3.808,2.819 -6.116,-0.278 -6.116,-0.278 L 10.565,37.495 C 9.142,35.742 9.45,32.406 11.156,30.929 l 11.739,-8.597 c 1.166,-1 2.897,-0.843 3.885,0.343 0.976,1.2 0.822,2.994 -0.346,3.996 l -7.515,5.657 5.399,5.484 z"
     id="path863"
     style="fill:#ffffff;fill-opacity:1" /></g></svg>
