<?xml version="1.0" encoding="UTF-8" standalone="no"?>
<svg
   xmlns:dc="http://purl.org/dc/elements/1.1/"
   xmlns:cc="http://creativecommons.org/ns#"
   xmlns:rdf="http://www.w3.org/1999/02/22-rdf-syntax-ns#"
   xmlns:svg="http://www.w3.org/2000/svg"
   xmlns="http://www.w3.org/2000/svg"
   xmlns:sodipodi="http://sodipodi.sourceforge.net/DTD/sodipodi-0.dtd"
   xmlns:inkscape="http://www.inkscape.org/namespaces/inkscape"
   version="1.1"
   id="Layer_1"
   x="0px"
   y="0px"
   width="18.442778"
   height="25"
   viewBox="0 0 18.442778 25"
   enable-background="new 0 0 21 21"
   xml:space="preserve"
   sodipodi:docname="police_15.svg"
   inkscape:version="1.0.1 (1.0.1+r73)"><metadata
   id="metadata13"><rdf:RDF><cc:Work
       rdf:about=""><dc:format>image/svg+xml</dc:format><dc:type
         rdf:resource="http://purl.org/dc/dcmitype/StillImage" /><dc:title /></cc:Work></rdf:RDF></metadata><defs
   id="defs11" /><sodipodi:namedview
   pagecolor="#ffffff"
   bordercolor="#666666"
   borderopacity="1"
   objecttolerance="10"
   gridtolerance="10"
   guidetolerance="10"
   inkscape:pageopacity="0"
   inkscape:pageshadow="2"
   inkscape:window-width="1858"
   inkscape:window-height="1021"
   id="namedview9"
   showgrid="false"
   inkscape:zoom="29.058721"
   inkscape:cx="6.8086533"
   inkscape:cy="10.539309"
   inkscape:window-x="62"
   inkscape:window-y="27"
   inkscape:window-maximized="1"
   inkscape:current-layer="Layer_1"
   inkscape:document-rotation="0"
   showguides="true"
   inkscape:guide-bbox="true"><inkscape:grid
     type="xygrid"
     id="grid1023"
     originx="-2.823335"
     originy="0.04866744" /></sodipodi:namedview>
<path
   d="M 18.442778,9.2213891 C 18.442778,4.1279179 14.31486,0 9.2213891,0 4.1279179,0 0,4.1279179 0,9.2213891 0,11.263996 0.6713798,13.145284 1.7958815,14.673088 L 9.2273201,25 16.841431,14.419244 h -0.0024 c 1.009442,-1.480356 1.60372,-3.269121 1.60372,-5.1978549 z"
   id="path2"
   style="fill:#78909c;fill-opacity:1;stroke-width:1.18618" />
<circle
   fill="#FFFFFF"
   cx="9.1059322"
   cy="9.2791185"
   r="6.5026569"
   id="circle4"
   style="fill:#ff0000;fill-opacity:0;stroke-width:1.18618" />

<g
   transform="matrix(0.0010954,0,0,-9.2670571e-4,3.1822504,15.367607)"
   fill="#000000"
   stroke="none"
   id="g1092"
   style="fill:#ffffff;fill-opacity:1"><path
     d="m 4675,12310 245,-490 h 2465 2465 l 245,490 245,490 H 7385 4430 Z"
     id="path1084"
     style="fill:#ffffff;fill-opacity:1" /><path
     d="m 4920,10703 c 0,-613 6,-791 36,-993 102,-707 367,-1292 764,-1690 350,-351 782,-552 1319,-615 147,-17 501,-20 652,-5 740,74 1311,427 1691,1046 253,410 422,980 458,1542 5,81 10,414 10,740 v 592 H 7385 4920 Z"
     id="path1086"
     style="fill:#ffffff;fill-opacity:1" /><path
     d="M 845,9851 C 627,9815 440,9721 290,9570 164,9445 80,9299 27,9112 L 5,9035 2,6955 C 0,5484 2,4850 10,4791 c 42,-322 248,-606 545,-750 159,-78 239,-96 430,-95 h 160 l 1394,312 c 766,172 1395,312 1397,312 2,0 5,-1026 6,-2281 l 3,-2281 101,119 c 55,65 1081,1274 2280,2688 1199,1414 2453,2892 2787,3285 334,393 607,718 607,721 0,7 -160,45 -250,59 -42,6 -779,10 -2066,10 H 5403 l -304,-65 c -167,-36 -481,-104 -696,-150 -520,-112 -1094,-236 -1548,-334 -203,-44 -478,-103 -610,-131 -132,-28 -248,-53 -257,-56 -17,-5 -18,76 -21,1433 l -2,1438 -23,83 c -66,247 -213,455 -414,586 -166,108 -313,155 -508,161 -69,2 -147,0 -175,-4 z"
     id="path1088"
     style="fill:#ffffff;fill-opacity:1" /><path
     d="M 10498,6094 C 10452,6039 9921,5415 9320,4705 8718,3995 7596,2673 6826,1765 6057,858 5405,89 5377,57 L 5328,0 h 2751 2751 l -3,2777 -3,2778 -22,100 c -42,183 -115,369 -195,499 l -24,38 z"
     id="path1090"
     style="fill:#ffffff;fill-opacity:1" /></g></svg>
