<?xml version="1.0" encoding="UTF-8" standalone="no"?>
<svg
   xmlns:dc="http://purl.org/dc/elements/1.1/"
   xmlns:cc="http://creativecommons.org/ns#"
   xmlns:rdf="http://www.w3.org/1999/02/22-rdf-syntax-ns#"
   xmlns:svg="http://www.w3.org/2000/svg"
   xmlns="http://www.w3.org/2000/svg"
   xmlns:sodipodi="http://sodipodi.sourceforge.net/DTD/sodipodi-0.dtd"
   xmlns:inkscape="http://www.inkscape.org/namespaces/inkscape"
   version="1.1"
   id="Layer_1"
   x="0px"
   y="0px"
   width="21px"
   height="21px"
   viewBox="0 0 21 21"
   enable-background="new 0 0 21 21"
   xml:space="preserve"
   sodipodi:docname="shop (21x21 px)-r-w.svg"
   inkscape:version="1.0.1 (1.0.1+r73)"><metadata
   id="metadata13"><rdf:RDF><cc:Work
       rdf:about=""><dc:format>image/svg+xml</dc:format><dc:type
         rdf:resource="http://purl.org/dc/dcmitype/StillImage" /><dc:title></dc:title></cc:Work></rdf:RDF></metadata><defs
   id="defs11" /><sodipodi:namedview
   pagecolor="#ffffff"
   bordercolor="#666666"
   borderopacity="1"
   objecttolerance="10"
   gridtolerance="10"
   guidetolerance="10"
   inkscape:pageopacity="0"
   inkscape:pageshadow="2"
   inkscape:window-width="1858"
   inkscape:window-height="1021"
   id="namedview9"
   showgrid="false"
   inkscape:zoom="20.547619"
   inkscape:cx="-0.23158311"
   inkscape:cy="12.162695"
   inkscape:window-x="62"
   inkscape:window-y="27"
   inkscape:window-maximized="1"
   inkscape:current-layer="Layer_1"
   inkscape:document-rotation="0"
   showguides="true"
   inkscape:guide-bbox="true"><inkscape:grid
     type="xygrid"
     id="grid1023" /></sodipodi:namedview>
<path
   d="m 18.371335,7.7253326 c 0,-4.294 -3.48,-7.77400004 -7.774,-7.77400004 -4.2940001,0 -7.7740001,3.48000004 -7.7740001,7.77400004 0,1.722 0.566,3.3080004 1.514,4.5960004 l 6.2650001,8.706 6.419,-8.92 h -0.002 c 0.851,-1.248 1.352,-2.7560004 1.352,-4.3820004 z"
   id="path2"
   style="fill:#5491f5;fill-opacity:1" />
<circle
   fill="#FFFFFF"
   cx="10.5"
   cy="7.774"
   r="5.482"
   id="circle4"
   style="fill:#ff0000;fill-opacity:0" />

<g
   id="g1086"
   transform="matrix(0.01670157,0,0,0.01747493,6.4985969,3.1228249)"
   style="fill:#ffffff;fill-opacity:1"><g
     id="g1029"
     style="fill:#ffffff;fill-opacity:1">
	<g
   id="g1027"
   style="fill:#ffffff;fill-opacity:1">
		<path
   d="M 455.111,0 H 56.889 L 28.444,512 h 455.111 z m -78.222,118.308 v 66.581 c 0,66.658 -54.231,120.889 -120.889,120.889 -66.658,0 -120.889,-54.231 -120.889,-120.889 V 118.308 C 130.699,113.295 128,106.743 128,99.556 c 0,-15.684 12.76,-28.444 28.444,-28.444 15.684,0 28.444,12.76 28.444,28.444 0,7.187 -2.699,13.739 -7.111,18.752 v 66.581 c 0,43.132 35.091,78.222 78.222,78.222 43.131,0 78.222,-35.091 78.222,-78.222 v -66.581 c -4.412,-5.012 -7.111,-11.565 -7.111,-18.752 0,-15.684 12.76,-28.444 28.444,-28.444 15.684,0 28.444,12.76 28.444,28.444 0.002,7.186 -2.697,13.738 -7.109,18.752 z"
   id="path1025"
   style="fill:#ffffff;fill-opacity:1" />
	</g>
</g><g
     id="g1031"
     style="fill:#ffffff;fill-opacity:1">
</g><g
     id="g1033"
     style="fill:#ffffff;fill-opacity:1">
</g><g
     id="g1035"
     style="fill:#ffffff;fill-opacity:1">
</g><g
     id="g1037"
     style="fill:#ffffff;fill-opacity:1">
</g><g
     id="g1039"
     style="fill:#ffffff;fill-opacity:1">
</g><g
     id="g1041"
     style="fill:#ffffff;fill-opacity:1">
</g><g
     id="g1043"
     style="fill:#ffffff;fill-opacity:1">
</g><g
     id="g1045"
     style="fill:#ffffff;fill-opacity:1">
</g><g
     id="g1047"
     style="fill:#ffffff;fill-opacity:1">
</g><g
     id="g1049"
     style="fill:#ffffff;fill-opacity:1">
</g><g
     id="g1051"
     style="fill:#ffffff;fill-opacity:1">
</g><g
     id="g1053"
     style="fill:#ffffff;fill-opacity:1">
</g><g
     id="g1055"
     style="fill:#ffffff;fill-opacity:1">
</g><g
     id="g1057"
     style="fill:#ffffff;fill-opacity:1">
</g><g
     id="g1059"
     style="fill:#ffffff;fill-opacity:1">
</g></g></svg>
