<?xml version="1.0" encoding="UTF-8" standalone="no"?>
<svg
   xmlns:dc="http://purl.org/dc/elements/1.1/"
   xmlns:cc="http://creativecommons.org/ns#"
   xmlns:rdf="http://www.w3.org/1999/02/22-rdf-syntax-ns#"
   xmlns:svg="http://www.w3.org/2000/svg"
   xmlns="http://www.w3.org/2000/svg"
   xmlns:sodipodi="http://sodipodi.sourceforge.net/DTD/sodipodi-0.dtd"
   xmlns:inkscape="http://www.inkscape.org/namespaces/inkscape"
   version="1.1"
   id="Layer_1"
   x="0px"
   y="0px"
   width="21px"
   height="21px"
   viewBox="0 0 21 21"
   enable-background="new 0 0 21 21"
   xml:space="preserve"
   sodipodi:docname="temple (21x21 px).svg"
   inkscape:version="1.0.1 (1.0.1+r73)"><metadata
   id="metadata13"><rdf:RDF><cc:Work
       rdf:about=""><dc:format>image/svg+xml</dc:format><dc:type
         rdf:resource="http://purl.org/dc/dcmitype/StillImage" /><dc:title></dc:title></cc:Work></rdf:RDF></metadata><defs
   id="defs11" /><sodipodi:namedview
   pagecolor="#ffffff"
   bordercolor="#666666"
   borderopacity="1"
   objecttolerance="10"
   gridtolerance="10"
   guidetolerance="10"
   inkscape:pageopacity="0"
   inkscape:pageshadow="2"
   inkscape:window-width="1858"
   inkscape:window-height="1021"
   id="namedview9"
   showgrid="false"
   inkscape:zoom="29.058721"
   inkscape:cx="11.850436"
   inkscape:cy="10.087189"
   inkscape:window-x="62"
   inkscape:window-y="27"
   inkscape:window-maximized="1"
   inkscape:current-layer="Layer_1"
   inkscape:document-rotation="0"
   showguides="true"
   inkscape:guide-bbox="true"><inkscape:grid
     type="xygrid"
     id="grid1023" /></sodipodi:namedview>
<path
   d="m 18.371335,7.7253326 c 0,-4.294 -3.48,-7.77400004 -7.774,-7.77400004 -4.2940001,0 -7.7740001,3.48000004 -7.7740001,7.77400004 0,1.722 0.566,3.3080004 1.514,4.5960004 l 6.2650001,8.706 6.419,-8.92 h -0.002 c 0.851,-1.248 1.352,-2.7560004 1.352,-4.3820004 z"
   id="path2"
   style="fill:#78909c;fill-opacity:1" />
<circle
   fill="#FFFFFF"
   cx="10.5"
   cy="7.774"
   r="5.482"
   id="circle4"
   style="fill:#ff0000;fill-opacity:0" />

<g
   style="overflow:inherit;fill:#ffffff;fill-opacity:1"
   id="g935"
   transform="matrix(0.20334033,0,0,0.2214349,5.56335,2.3705248)"><path
     d="m 27.509,9.579 c 0.605,0.554 1.178,1.077 1.608,1.734 l 0.239,0.365 0.395,-0.188 c 1.098,-0.525 1.847,-1.365 2.571,-2.177 0.546,-0.612 1.062,-1.191 1.709,-1.626 L 34.433,7.416 34.174,7.005 C 33.047,5.217 31.577,3.729 29.806,2.581 L 29.435,2.34 29.151,2.68 c -1.114,1.335 -2.347,2.583 -3.664,3.709 l -0.289,0.248 0.162,0.345 c 0.52,1.107 1.348,1.864 2.149,2.597 z m 6.431,7.567 c 3.759,0 6.837,-1.536 8.667,-4.326 L 42.825,12.488 42.552,12.2 C 42.234,11.866 41.93,11.517 41.626,11.168 40.719,10.127 39.78,9.051 38.458,8.337 L 37.997,8.088 37.77,8.562 c -1.546,3.22 -4.539,3.896 -6.777,3.896 -3.923,0 -8.638,-2.189 -10.734,-4.985 l -1.65,-2.201 0.771,2.641 c 1.433,4.919 8.238,9.233 14.56,9.233 z m -12.972,8.633 c 1.562,-2.972 1.627,-6.452 0.165,-9.607 -1.442,-3.114 -4.111,-5.309 -7.138,-5.875 -0.641,-0.12 -1.273,-0.179 -1.879,-0.179 -3.676,0 -6.082,2.146 -8.408,4.22 -0.847,0.755 -1.647,1.473 -2.501,2.082 L 0.61,16.856 1.224,17.277 C 1.42,17.404 1.913,18.153 2.31,18.723 3.57,20.533 4.62,22 5.736,22 h 0.001 c 0.393,0 0.76,-0.466 2.039,-1.904 0.539,-0.605 1.149,-1.374 1.476,-1.633 1.462,-1.161 3.466,-2.751 5.655,-2.751 0.295,0 0.592,0.029 0.881,0.087 1.013,0.203 1.625,0.672 1.87,1.435 0.502,1.563 -0.651,3.959 -1.64,5.017 -0.499,0.535 -1.045,0.92 -1.624,1.328 -0.83,0.585 -1.688,1.191 -2.397,2.256 l -0.23,0.346 0.299,0.29 1.29,1.258 c 1.11,1.087 2.258,2.211 3.436,3.273 l 0.395,0.356 0.332,-0.416 c 0.747,-0.937 1.535,-1.934 2.308,-2.953 0.208,0.309 0.429,0.625 0.656,0.949 1.705,2.438 3.638,5.201 2.377,8.812 -0.939,2.691 -4.11,4.443 -7.682,4.186 C 10.954,41.64 7.194,38.034 3.681,30.912 3.462,30.467 3.282,29.968 3.108,29.485 2.701,28.355 2.279,27.187 1.297,26.461 l -0.985,-0.728 0.194,1.209 c 1.031,6.432 4.053,12.639 8.085,16.604 2.439,2.402 6.441,3.954 10.195,3.954 4.337,0 8.984,-2.254 9.016,-8.58 0.028,-5.925 -3.631,-9.773 -6.572,-12.865 z m 27.369,-5.433 c -1.165,-2.167 -5.545,-3.747 -7.742,-3.266 -3.328,0.726 -5.661,2.609 -7.72,4.271 -2.107,1.702 -3.928,3.171 -6.358,3.171 -0.73,0 -1.477,-0.13 -2.283,-0.396 l -1.28,-0.423 0.694,1.155 c 1.594,2.653 3.455,3.943 5.689,3.943 1.815,-10e-4 3.673,-0.871 5.514,-1.998 l 0.413,1.224 c 0.935,2.769 5.005,6.876 8.71,6.876 l 0.222,-0.006 c 1.617,-0.072 2.967,-0.983 3.905,-2.637 1.922,-3.387 1.705,-9.186 0.236,-11.914 z m -10.941,4.786 c 2.732,-1.857 5.602,-3.764 7.953,-3.349 1.023,1.778 0.605,3.309 0.061,4.293 -1.038,1.873 -3.312,3.182 -5.532,3.182 -1.046,0 -2.547,-0.298 -3.759,-1.716 l -0.853,-0.997 c 0.713,-0.451 1.424,-0.934 2.13,-1.413 z"
     id="path924"
     style="fill:#ffffff;fill-opacity:1" /></g></svg>
