<?xml version="1.0" encoding="UTF-8" standalone="no"?>
<svg
   xmlns:dc="http://purl.org/dc/elements/1.1/"
   xmlns:cc="http://creativecommons.org/ns#"
   xmlns:rdf="http://www.w3.org/1999/02/22-rdf-syntax-ns#"
   xmlns:svg="http://www.w3.org/2000/svg"
   xmlns="http://www.w3.org/2000/svg"
   xmlns:sodipodi="http://sodipodi.sourceforge.net/DTD/sodipodi-0.dtd"
   xmlns:inkscape="http://www.inkscape.org/namespaces/inkscape"
   version="1.1"
   id="Layer_1"
   x="0px"
   y="0px"
   width="21px"
   height="21px"
   viewBox="0 0 21 21"
   enable-background="new 0 0 21 21"
   xml:space="preserve"
   sodipodi:docname="swim (21x21 px)-r-w.svg"
   inkscape:version="1.0.1 (1.0.1+r73)"><metadata
   id="metadata13"><rdf:RDF><cc:Work
       rdf:about=""><dc:format>image/svg+xml</dc:format><dc:type
         rdf:resource="http://purl.org/dc/dcmitype/StillImage" /><dc:title></dc:title></cc:Work></rdf:RDF></metadata><defs
   id="defs11" /><sodipodi:namedview
   pagecolor="#ffffff"
   bordercolor="#666666"
   borderopacity="1"
   objecttolerance="10"
   gridtolerance="10"
   guidetolerance="10"
   inkscape:pageopacity="0"
   inkscape:pageshadow="2"
   inkscape:window-width="1858"
   inkscape:window-height="1021"
   id="namedview9"
   showgrid="false"
   inkscape:zoom="29.058721"
   inkscape:cx="4.0755053"
   inkscape:cy="10.088614"
   inkscape:window-x="62"
   inkscape:window-y="27"
   inkscape:window-maximized="1"
   inkscape:current-layer="Layer_1"
   inkscape:document-rotation="0" />
<path
   d="M18.274,7.774C18.274,3.48,14.794,0,10.5,0S2.726,3.48,2.726,7.774c0,1.722,0.566,3.308,1.514,4.596l6.265,8.706l6.419-8.92  h-0.002C17.773,10.908,18.274,9.4,18.274,7.774z"
   id="path2"
   style="fill:#36a853;fill-opacity:1" />
<circle
   fill="#FFFFFF"
   cx="10.5"
   cy="7.774"
   r="5.482"
   id="circle4"
   style="fill:#ff0000;fill-opacity:0" />

<g
   style="overflow:inherit;fill:#ffffff;fill-opacity:1"
   id="g1079"
   transform="matrix(0.25,0,0,0.25,4.2496353,1.866255)"><path
     d="m 49,40 c -1.051,0 -2.052,-0.232 -2.952,-0.641 -0.917,-0.414 -1.956,-0.664 -3.042,-0.664 -1.091,0 -2.131,0.252 -3.049,0.664 C 39.058,39.768 38.056,40 37.004,40 c -1.05,0 -2.056,-0.232 -2.95,-0.641 -0.933,-0.414 -1.974,-0.664 -3.048,-0.664 -1.087,0 -2.128,0.252 -3.049,0.664 C 27.062,39.768 26.045,40 25.004,40 c -1.052,0 -2.053,-0.232 -2.96,-0.641 -0.921,-0.414 -1.958,-0.664 -3.036,-0.664 -1.087,0 -2.127,0.252 -3.048,0.664 C 15.065,39.768 14.048,40 12.996,40 11.96,40 10.943,39.768 10.048,39.359 9.127,38.945 8.086,38.695 7,38.695 5.921,38.695 4.886,38.947 3.963,39.359 3.054,39.768 2.052,40 1,40 v -4.396 c 1.051,0 2.053,-0.238 2.963,-0.631 0.923,-0.424 1.958,-0.674 3.037,-0.674 1.086,0 2.127,0.25 3.048,0.674 0.895,0.393 1.912,0.631 2.948,0.631 1.051,0 2.069,-0.238 2.964,-0.631 0.92,-0.424 1.961,-0.674 3.048,-0.674 1.078,0 2.114,0.25 3.036,0.674 0.907,0.393 1.908,0.631 2.96,0.631 1.041,0 2.057,-0.238 2.953,-0.631 0.921,-0.424 1.962,-0.674 3.049,-0.674 1.073,0 2.113,0.25 3.048,0.674 0.895,0.393 1.9,0.631 2.95,0.631 1.052,0 2.054,-0.238 2.953,-0.631 0.918,-0.424 1.958,-0.674 3.049,-0.674 1.086,0 2.125,0.25 3.042,0.674 0.9,0.393 1.901,0.631 2.952,0.631 z M 42.048,27.564 c 3.152,0 5.71,-2.55 5.71,-5.678 0,-3.131 -2.558,-5.668 -5.71,-5.668 -3.157,0 -5.712,2.538 -5.712,5.668 0,3.128 2.328,5.678 5.712,5.678 z M 8.791,30.756 c 0.443,0.105 0.861,0.258 1.258,0.436 0.895,0.402 1.912,0.641 2.949,0.641 1.05,0 2.069,-0.238 2.963,-0.641 0.921,-0.414 1.961,-0.676 3.048,-0.676 1.078,0 2.116,0.262 3.036,0.676 0.906,0.402 1.908,0.641 2.96,0.641 1.04,0 2.058,-0.238 2.952,-0.641 0.922,-0.414 1.962,-0.676 3.049,-0.676 1.074,0 2.115,0.262 3.048,0.676 0.896,0.402 1.9,0.641 2.952,0.641 0.765,0 1.502,-0.129 2.197,-0.346 L 29.678,14.431 40.757,12.424 C 42.383,12.116 43.563,10.848 43.563,9.225 43.563,7.435 42.096,6 40.301,6 l -0.37,0.011 -17.114,3.092 c -1.201,0.273 -2.792,2.019 -1.886,4.161 l 0.146,0.345 4.466,8.003 z"
     id="path1068"
     style="fill:#ffffff;fill-opacity:1" /></g></svg>
